<?xml version="1.0" encoding="UTF-8"?><svg xmlns="http://www.w3.org/2000/svg" viewBox="0 0 1000 579.02"><defs><style>.cls-1{fill:#83e390;}.cls-2{fill:#88fb2f;}.cls-3{fill:#c35929;}.cls-4{fill:#ca6b33;}.cls-5{fill:#c3ff58;}.cls-6{fill:#ae491b;}.cls-7{fill:#dff2f9;}.cls-8{fill:#118a00;}.cls-9{fill:#a33b28;}.cls-10{fill:#88ec96;}.cls-11{fill:#4dc308;}.cls-12{isolation:isolate;}.cls-13{mix-blend-mode:multiply;opacity:.75;}</style></defs><g class="cls-12"><g id="Layer_2"><g id="Layer_1-2"><g><path class="cls-7" d="M13.4,241.62H222.43c-3.73-6.95-11.65-11.76-20.84-11.76-.27,0-.54,.03-.81,.04,.53-2.33,.81-4.73,.81-7.2,0-16.78-12.92-30.85-30.34-34.7-5.2-14.34-20.25-24.71-38.01-24.71s-32.91,10.44-38.06,24.86c-7.07-5.65-16.39-9.09-26.61-9.09-22.07,0-39.96,16.01-39.96,35.75,0,1.27,.08,2.53,.22,3.77-8.95,4.66-15.06,13.19-15.43,23.05Z"/><path class="cls-7" d="M410.43,375.07h209.03c-3.73-6.95-11.65-11.76-20.84-11.76-.27,0-.54,.03-.81,.04,.53-2.33,.81-4.74,.81-7.2,0-16.78-12.92-30.85-30.34-34.7-5.2-14.34-20.25-24.71-38.01-24.71s-32.91,10.44-38.06,24.86c-7.07-5.65-16.39-9.09-26.61-9.09-22.07,0-39.96,16.01-39.96,35.75,0,1.27,.08,2.53,.22,3.77-8.96,4.66-15.06,13.19-15.43,23.05Z"/><g class="cls-13"><path class="cls-10" d="M882.81,511.91v-146.29c0-72.1-58.45-130.55-130.55-130.55s-130.54,58.45-130.54,130.55v146.29h261.09Z"/><path class="cls-10" d="M129.78,283.94c-67.34,0-122.76,51-129.78,116.48v160.35H260.33v-146.29c0-72.1-58.45-130.55-130.55-130.55Z"/><path class="cls-10" d="M667.71,576.51c-12.06-59.63-64.76-104.52-127.95-104.52s-115.88,44.89-127.94,104.52h255.89Z"/><path class="cls-1" d="M477.2,576.51v-83.73c0-72.1-58.45-130.54-130.55-130.54s-130.54,58.45-130.54,130.54v83.73H477.2Z"/><path class="cls-1" d="M1000,419.51c-14.47-56.33-65.6-97.96-126.45-97.96-72.1,0-130.55,58.45-130.55,130.55v124.42h256.99v-157Z"/></g><g><g><g><rect class="cls-4" y="510.04" width="64.12" height="68.98"/><polygon class="cls-3" points="53.5 553.23 52.59 552.62 41.17 552.62 40.26 553.23 29.63 560.25 19.01 553.23 18.1 552.62 6.68 552.62 5.77 553.23 0 557.04 0 563.46 5.77 559.65 12.39 555.27 19.01 559.65 29.63 566.68 40.26 559.65 46.88 555.27 53.5 559.65 63.94 566.56 63.94 560.13 53.5 553.23"/><polygon class="cls-3" points="53.5 559.13 52.59 558.53 41.17 558.53 40.26 559.13 29.63 566.16 19.01 559.13 18.1 558.53 6.68 558.53 5.77 559.13 0 562.95 0 569.37 5.77 565.55 12.39 561.18 19.01 565.55 29.63 572.58 40.26 565.55 46.88 561.18 53.5 565.55 63.94 572.46 63.94 566.04 53.5 559.13"/><polygon class="cls-6" points="53.5 556.18 52.59 555.58 41.17 555.58 40.26 556.18 29.63 563.2 19.01 556.18 18.1 555.58 6.68 555.58 5.77 556.18 0 559.99 0 566.42 5.77 562.6 12.39 558.23 19.01 562.6 29.63 569.63 40.26 562.6 46.88 558.23 53.5 562.6 63.94 569.51 63.94 563.08 53.5 556.18"/></g><g><rect class="cls-4" x="64.2" y="510.04" width="68.98" height="68.98"/><polygon class="cls-3" points="122.55 553.23 121.64 552.62 119.94 552.62 111.93 552.62 110.23 552.62 109.31 553.23 98.69 560.25 88.06 553.23 87.15 552.62 85.45 552.62 77.44 552.62 75.73 552.62 74.82 553.23 64.2 560.25 64.12 560.2 64.12 566.63 64.2 566.68 74.82 559.65 81.44 555.27 88.06 559.65 98.69 566.68 109.31 559.65 115.94 555.27 122.55 559.65 133 566.56 133 560.13 122.55 553.23"/><polygon class="cls-3" points="122.55 559.13 121.64 558.53 119.94 558.53 111.93 558.53 110.23 558.53 109.31 559.13 98.69 566.16 88.06 559.13 87.15 558.53 85.45 558.53 77.44 558.53 75.73 558.53 74.82 559.13 64.2 566.16 64.12 566.11 64.12 572.53 64.2 572.58 74.82 565.55 81.44 561.18 88.06 565.55 98.69 572.58 109.31 565.55 115.94 561.18 122.55 565.55 133 572.46 133 566.04 122.55 559.13"/><polygon class="cls-6" points="122.55 556.18 121.64 555.58 119.94 555.58 111.93 555.58 110.23 555.58 109.31 556.18 98.69 563.2 88.06 556.18 87.15 555.58 85.45 555.58 77.44 555.58 75.73 555.58 74.82 556.18 64.2 563.2 64.12 563.16 64.12 569.58 64.2 569.63 74.82 562.6 81.44 558.23 88.06 562.6 98.69 569.63 109.31 562.6 115.94 558.23 122.55 562.6 133 569.51 133 563.08 122.55 556.18"/></g><g><rect class="cls-4" x="133.25" y="510.04" width="68.98" height="68.98"/><polygon class="cls-3" points="191.61 553.23 190.7 552.62 189 552.62 180.98 552.62 179.28 552.62 178.37 553.23 167.75 560.25 157.12 553.23 156.21 552.62 154.5 552.62 146.5 552.62 144.79 552.62 143.88 553.23 133.25 560.25 133.18 560.2 133.18 566.63 133.25 566.68 143.88 559.65 150.5 555.27 157.12 559.65 167.75 566.68 178.37 559.65 184.99 555.27 191.61 559.65 202.05 566.56 202.05 560.13 191.61 553.23"/><polygon class="cls-3" points="191.61 559.13 190.7 558.53 189 558.53 180.98 558.53 179.28 558.53 178.37 559.13 167.75 566.16 157.12 559.13 156.21 558.53 154.5 558.53 146.5 558.53 144.79 558.53 143.88 559.13 133.25 566.16 133.18 566.11 133.18 572.53 133.25 572.58 143.88 565.55 150.5 561.18 157.12 565.55 167.75 572.58 178.37 565.55 184.99 561.18 191.61 565.55 202.05 572.46 202.05 566.04 191.61 559.13"/><polygon class="cls-6" points="191.61 556.18 190.7 555.58 189 555.58 180.98 555.58 179.28 555.58 178.37 556.18 167.75 563.2 157.12 556.18 156.21 555.58 154.5 555.58 146.5 555.58 144.79 555.58 143.88 556.18 133.25 563.2 133.18 563.16 133.18 569.58 133.25 569.63 143.88 562.6 150.5 558.23 157.12 562.6 167.75 569.63 178.37 562.6 184.99 558.23 191.61 562.6 202.05 569.51 202.05 563.08 191.61 556.18"/></g><g><rect class="cls-4" x="202.31" y="510.04" width="68.98" height="68.98"/><polygon class="cls-3" points="260.66 553.23 259.75 552.62 258.05 552.62 250.04 552.62 248.34 552.62 247.43 553.23 236.8 560.25 226.18 553.23 225.27 552.62 223.56 552.62 215.55 552.62 213.85 552.62 212.94 553.23 202.31 560.25 202.23 560.2 202.23 566.63 202.31 566.68 212.94 559.65 219.56 555.27 226.18 559.65 236.8 566.68 247.43 559.65 254.05 555.27 260.66 559.65 271.11 566.56 271.11 560.13 260.66 553.23"/><polygon class="cls-3" points="260.66 559.13 259.75 558.53 258.05 558.53 250.04 558.53 248.34 558.53 247.43 559.13 236.8 566.16 226.18 559.13 225.27 558.53 223.56 558.53 215.55 558.53 213.85 558.53 212.94 559.13 202.31 566.16 202.23 566.11 202.23 572.53 202.31 572.58 212.94 565.55 219.56 561.18 226.18 565.55 236.8 572.58 247.43 565.55 254.05 561.18 260.66 565.55 271.11 572.46 271.11 566.04 260.66 559.13"/><polygon class="cls-6" points="260.66 556.18 259.75 555.58 258.05 555.58 250.04 555.58 248.34 555.58 247.43 556.18 236.8 563.2 226.18 556.18 225.27 555.58 223.56 555.58 215.55 555.58 213.85 555.58 212.94 556.18 202.31 563.2 202.23 563.16 202.23 569.58 202.31 569.63 212.94 562.6 219.56 558.23 226.18 562.6 236.8 569.63 247.43 562.6 254.05 558.23 260.66 562.6 271.11 569.51 271.11 563.08 260.66 556.18"/></g><g><rect class="cls-4" x="271.37" y="510.04" width="68.98" height="68.98"/><polygon class="cls-3" points="329.72 553.23 328.81 552.62 327.11 552.62 319.1 552.62 317.39 552.62 316.48 553.23 305.86 560.25 295.23 553.23 294.32 552.62 292.62 552.62 284.61 552.62 282.9 552.62 281.99 553.23 271.37 560.25 271.29 560.2 271.29 566.63 271.37 566.68 281.99 559.65 288.61 555.27 295.23 559.65 305.86 566.68 316.48 559.65 323.1 555.27 329.72 559.65 340.16 566.56 340.16 560.13 329.72 553.23"/><polygon class="cls-3" points="329.72 559.13 328.81 558.53 327.11 558.53 319.1 558.53 317.39 558.53 316.48 559.13 305.86 566.16 295.23 559.13 294.32 558.53 292.62 558.53 284.61 558.53 282.9 558.53 281.99 559.13 271.37 566.16 271.29 566.11 271.29 572.53 271.37 572.58 281.99 565.55 288.61 561.18 295.23 565.55 305.86 572.58 316.48 565.55 323.1 561.18 329.72 565.55 340.16 572.46 340.16 566.04 329.72 559.13"/><polygon class="cls-6" points="329.72 556.18 328.81 555.58 327.11 555.58 319.1 555.58 317.39 555.58 316.48 556.18 305.86 563.2 295.23 556.18 294.32 555.58 292.62 555.58 284.61 555.58 282.9 555.58 281.99 556.18 271.37 563.2 271.29 563.16 271.29 569.58 271.37 569.63 281.99 562.6 288.61 558.23 295.23 562.6 305.86 569.63 316.48 562.6 323.1 558.23 329.72 562.6 340.16 569.51 340.16 563.08 329.72 556.18"/></g><g><rect class="cls-4" x="340.24" y="510.04" width="68.98" height="68.98"/><polygon class="cls-3" points="398.59 553.23 397.68 552.62 395.98 552.62 387.97 552.62 386.27 552.62 385.36 553.23 374.73 560.25 364.11 553.23 363.2 552.62 361.49 552.62 353.48 552.62 351.78 552.62 350.87 553.23 340.24 560.25 340.16 560.2 340.16 566.63 340.24 566.68 350.87 559.65 357.49 555.27 364.11 559.65 374.73 566.68 385.36 559.65 391.98 555.27 398.59 559.65 409.04 566.56 409.04 560.13 398.59 553.23"/><polygon class="cls-3" points="398.59 559.13 397.68 558.53 395.98 558.53 387.97 558.53 386.27 558.53 385.36 559.13 374.73 566.16 364.11 559.13 363.2 558.53 361.49 558.53 353.48 558.53 351.78 558.53 350.87 559.13 340.24 566.16 340.16 566.11 340.16 572.53 340.24 572.58 350.87 565.55 357.49 561.18 364.11 565.55 374.73 572.58 385.36 565.55 391.98 561.18 398.59 565.55 409.04 572.46 409.04 566.04 398.59 559.13"/><polygon class="cls-6" points="398.59 556.18 397.68 555.58 395.98 555.58 387.97 555.58 386.27 555.58 385.36 556.18 374.73 563.2 364.11 556.18 363.2 555.58 361.49 555.58 353.48 555.58 351.78 555.58 350.87 556.18 340.24 563.2 340.16 563.16 340.16 569.58 340.24 569.63 350.87 562.6 357.49 558.23 364.11 562.6 374.73 569.63 385.36 562.6 391.98 558.23 398.59 562.6 409.04 569.51 409.04 563.08 398.59 556.18"/></g></g><g><g><path class="cls-9" d="M38.02,513.71H8.74c-.22,2.36-1.57,20.52,6.7,31.08,6.41,8.2,8.11-12.46,8.56-24.48,.33,5.18,1.8,12.25,6.83,17.16,7.94,7.75,8.65-18.29,8.71-23.77h-1.52Z"/><path class="cls-9" d="M0,513.71v26.32c7.76,7.88,8.47-20.34,8.53-26.32H0Z"/><path class="cls-9" d="M84.66,513.71h-29.28c-.21,2.36-1.57,20.52,6.7,31.08,6.41,8.2,8.11-12.46,8.56-24.48,.33,5.18,1.8,12.25,6.83,17.16,7.94,7.75,8.65-18.29,8.71-23.77h-1.52Z"/><path class="cls-9" d="M54.41,513.71h-14.65c-.21,1.98-1.57,17.25,6.7,26.14,7.94,8.53,8.65-20.12,8.71-26.14h-.76Z"/><path class="cls-9" d="M101.05,513.71h-14.66c-.21,1.98-1.57,17.25,6.7,26.14,7.94,8.53,8.65-20.12,8.71-26.14h-.76Z"/><path class="cls-9" d="M177.47,513.71h-29.28c-.22,2.36-1.57,20.52,6.7,31.08,6.41,8.2,8.11-12.46,8.56-24.48,.33,5.18,1.8,12.25,6.83,17.16,7.94,7.75,8.65-18.29,8.71-23.77h-1.52Z"/><path class="cls-9" d="M147.22,513.71h-45.2c-.22,2.36-1.57,20.52,6.7,31.08,6.41,8.2,8.11-12.46,8.56-24.48,.33,5.18,1.8,12.25,6.83,17.16,5.77,5.64,7.72-6.58,8.38-15.77,.41,5.62,1.96,12.97,6.78,18.15,7.94,8.53,8.65-20.12,8.71-26.14h-.76Z"/><path class="cls-9" d="M224.11,513.71h-29.28c-.21,2.36-1.57,20.52,6.7,31.08,6.41,8.2,8.11-12.46,8.56-24.48,.33,5.18,1.8,12.25,6.83,17.16,7.94,7.75,8.65-18.29,8.71-23.77h-1.52Z"/><path class="cls-9" d="M193.86,513.71h-14.65c-.21,1.98-1.57,17.25,6.7,26.14,7.94,8.53,8.65-20.12,8.71-26.14h-.76Z"/><path class="cls-9" d="M240.5,513.71h-14.65c-.21,1.98-1.57,17.25,6.7,26.14,7.94,8.53,8.65-20.12,8.71-26.14h-.76Z"/><path class="cls-9" d="M316.93,513.71h-29.28c-.22,2.36-1.57,20.52,6.7,31.08,6.41,8.2,8.11-12.46,8.56-24.48,.33,5.18,1.8,12.25,6.83,17.16,7.94,7.75,8.65-18.29,8.71-23.77h-1.52Z"/><path class="cls-9" d="M286.67,513.71h-45.2c-.22,2.36-1.57,20.52,6.7,31.08,6.41,8.2,8.11-12.46,8.56-24.48,.33,5.18,1.8,12.25,6.83,17.16,5.77,5.64,7.72-6.58,8.38-15.77,.41,5.62,1.96,12.97,6.78,18.15,7.94,8.53,8.65-20.12,8.71-26.14h-.76Z"/><path class="cls-9" d="M363.56,513.71h-29.28c-.21,2.36-1.57,20.52,6.7,31.08,6.41,8.2,8.11-12.46,8.56-24.48,.33,5.18,1.8,12.25,6.83,17.16,7.94,7.75,8.65-18.29,8.71-23.77h-1.52Z"/><path class="cls-9" d="M333.31,513.71h-14.65c-.21,1.98-1.57,17.25,6.7,26.14,7.94,8.53,8.65-20.12,8.71-26.14h-.76Z"/><path class="cls-9" d="M410.96,513.71h-30.04c-.22,2.36-1.57,20.52,6.7,31.08,6.41,8.2,8.11-12.46,8.56-24.48,.33,5.18,1.8,12.25,6.83,17.16,7.94,7.75,8.65-18.29,8.71-23.77h-.76Z"/><path class="cls-9" d="M379.95,513.71h-14.65c-.21,1.98-1.57,17.25,6.7,26.14,7.94,8.53,8.65-20.12,8.71-26.14h-.76Z"/></g><g><g><g><path class="cls-8" d="M24.13,510.04c-.22,1.8-1.57,15.69,6.7,23.77,7.94,7.75,8.65-18.29,8.71-23.77h-15.41Z"/><path class="cls-11" d="M38.78,510.04h-14.06c-.16,1.35-.77,13.92,6.03,20.5,6.38,6.19,7.43-13.79,8.03-20.5Z"/><path class="cls-2" d="M38.02,510.04h-12.7c-.11,.9,.03,12.14,5.36,17.23,4.82,4.61,6.22-9.3,7.34-17.23Z"/><path class="cls-5" d="M37.26,510.04h-11.35c-.05,.45,.83,10.37,4.69,13.95,3.27,3.04,5-4.81,6.65-13.95Z"/><path class="cls-5" d="M26.51,510.04s4.72,25.06,9.99,0h-9.99Z"/></g><g><path class="cls-8" d="M0,510.04v26.32c7.76,7.88,8.47-20.34,8.53-26.32H0Z"/><path class="cls-11" d="M0,510.04v22.79c6.15,5.94,7.19-15.52,7.77-22.79H0Z"/><path class="cls-2" d="M0,510.04v19.26c4.55,4.04,5.91-10.75,7.01-19.26H0Z"/><path class="cls-5" d="M0,510.04v15.68c3.01,2.25,4.67-6.04,6.25-15.68H0Z"/><path class="cls-5" d="M0,510.04v12.1c1.61,.83,3.51-1.73,5.49-12.1H0Z"/></g><g><path class="cls-8" d="M8.74,510.04c-.22,2.36-1.57,20.52,6.7,31.08,7.94,10.14,8.65-23.92,8.71-31.08H8.74Z"/><path class="cls-11" d="M23.39,510.04H9.34c-.16,1.77-.77,18.2,6.03,26.81,6.38,8.09,7.43-18.04,8.03-26.81Z"/><path class="cls-2" d="M22.64,510.04H9.93c-.11,1.18,.03,15.88,5.36,22.53,4.82,6.04,6.22-12.16,7.34-22.53Z"/><path class="cls-5" d="M21.88,510.04H10.53c-.05,.59,.83,13.56,4.69,18.25,3.27,3.97,5-6.28,6.65-18.25Z"/><path class="cls-5" d="M11.13,510.04s4.72,32.77,9.99,0H11.13Z"/></g></g><g><g><path class="cls-8" d="M70.77,510.04c-.22,1.8-1.57,15.69,6.7,23.77,7.94,7.75,8.65-18.29,8.71-23.77h-15.41Z"/><path class="cls-11" d="M85.42,510.04h-14.06c-.16,1.35-.77,13.92,6.03,20.5,6.38,6.19,7.43-13.79,8.03-20.5Z"/><path class="cls-2" d="M84.66,510.04h-12.7c-.11,.9,.03,12.14,5.36,17.23,4.82,4.61,6.22-9.3,7.34-17.23Z"/><path class="cls-5" d="M83.9,510.04h-11.35c-.05,.45,.84,10.37,4.69,13.95,3.27,3.04,5-4.81,6.65-13.95Z"/><path class="cls-5" d="M73.15,510.04s4.72,25.06,9.99,0h-9.99Z"/></g><g><path class="cls-8" d="M39.75,510.04c-.21,1.98-1.57,17.25,6.7,26.14,7.94,8.53,8.65-20.12,8.71-26.14h-15.41Z"/><path class="cls-11" d="M54.41,510.04h-14.06c-.16,1.49-.77,15.31,6.03,22.54,6.38,6.8,7.43-15.18,8.03-22.54Z"/><path class="cls-2" d="M53.65,510.04h-12.7c-.11,.99,.02,13.36,5.36,18.95,4.82,5.08,6.22-10.23,7.34-18.95Z"/><path class="cls-5" d="M52.89,510.04h-11.34c-.05,.5,.84,11.4,4.69,15.35,3.27,3.34,5-5.29,6.65-15.35Z"/><path class="cls-5" d="M42.14,510.04s4.72,27.56,9.99,0h-9.99Z"/></g><g><path class="cls-8" d="M55.38,510.04c-.21,2.36-1.57,20.52,6.7,31.08,7.94,10.14,8.65-23.92,8.71-31.08h-15.41Z"/><path class="cls-11" d="M70.03,510.04h-14.06c-.16,1.77-.77,18.2,6.03,26.81,6.38,8.09,7.43-18.04,8.03-26.81Z"/><path class="cls-2" d="M69.27,510.04h-12.7c-.11,1.18,.03,15.88,5.36,22.53,4.82,6.04,6.22-12.16,7.34-22.53Z"/><path class="cls-5" d="M68.51,510.04h-11.35c-.05,.59,.83,13.56,4.69,18.25,3.27,3.97,5-6.28,6.65-18.25Z"/><path class="cls-5" d="M57.77,510.04s4.72,32.77,9.99,0h-9.99Z"/></g></g><g><g><path class="cls-8" d="M117.4,510.04c-.22,1.8-1.57,15.69,6.7,23.77,7.94,7.75,8.65-18.29,8.71-23.77h-15.41Z"/><path class="cls-11" d="M132.06,510.04h-14.06c-.16,1.35-.77,13.92,6.03,20.5,6.38,6.19,7.43-13.79,8.03-20.5Z"/><path class="cls-2" d="M131.3,510.04h-12.7c-.11,.9,.03,12.14,5.36,17.23,4.82,4.61,6.22-9.3,7.34-17.23Z"/><path class="cls-5" d="M130.54,510.04h-11.35c-.05,.45,.83,10.37,4.69,13.95,3.27,3.04,5-4.81,6.65-13.95Z"/><path class="cls-5" d="M119.79,510.04s4.72,25.06,9.99,0h-9.99Z"/></g><g><path class="cls-8" d="M86.39,510.04c-.21,1.98-1.57,17.25,6.7,26.14,7.94,8.53,8.65-20.12,8.71-26.14h-15.41Z"/><path class="cls-11" d="M101.05,510.04h-14.06c-.16,1.49-.77,15.31,6.03,22.54,6.38,6.8,7.43-15.18,8.03-22.54Z"/><path class="cls-2" d="M100.29,510.04h-12.7c-.11,.99,.02,13.36,5.36,18.95,4.82,5.08,6.22-10.23,7.34-18.95Z"/><path class="cls-5" d="M99.53,510.04h-11.35c-.05,.5,.84,11.4,4.69,15.35,3.27,3.34,5-5.29,6.65-15.35Z"/><path class="cls-5" d="M88.78,510.04s4.72,27.56,9.99,0h-9.99Z"/></g><g><path class="cls-8" d="M102.02,510.04c-.22,2.36-1.57,20.52,6.7,31.08,7.94,10.14,8.65-23.92,8.71-31.08h-15.41Z"/><path class="cls-11" d="M116.67,510.04h-14.06c-.16,1.77-.77,18.2,6.03,26.81,6.38,8.09,7.43-18.04,8.03-26.81Z"/><path class="cls-2" d="M115.91,510.04h-12.7c-.11,1.18,.03,15.88,5.36,22.53,4.82,6.04,6.22-12.16,7.34-22.53Z"/><path class="cls-5" d="M115.15,510.04h-11.35c-.05,.59,.84,13.56,4.69,18.25,3.27,3.97,5-6.28,6.65-18.25Z"/><path class="cls-5" d="M104.4,510.04s4.72,32.77,9.99,0h-9.99Z"/></g></g></g><g><g><g><path class="cls-8" d="M163.58,510.04c-.22,1.8-1.57,15.69,6.7,23.77,7.94,7.75,8.65-18.29,8.71-23.77h-15.41Z"/><path class="cls-11" d="M178.23,510.04h-14.06c-.16,1.35-.77,13.92,6.03,20.5,6.38,6.19,7.43-13.79,8.02-20.5Z"/><path class="cls-2" d="M177.47,510.04h-12.7c-.11,.9,.03,12.14,5.36,17.23,4.82,4.61,6.22-9.3,7.34-17.23Z"/><path class="cls-5" d="M176.71,510.04h-11.35c-.05,.45,.83,10.37,4.69,13.95,3.27,3.04,5-4.81,6.65-13.95Z"/><path class="cls-5" d="M165.96,510.04s4.72,25.06,9.99,0h-9.99Z"/></g><g><path class="cls-8" d="M132.57,510.04c-.21,1.98-1.57,17.25,6.7,26.14,7.94,8.53,8.65-20.12,8.71-26.14h-15.41Z"/><path class="cls-11" d="M147.22,510.04h-14.06c-.16,1.49-.77,15.31,6.03,22.54,6.38,6.8,7.43-15.18,8.03-22.54Z"/><path class="cls-2" d="M146.46,510.04h-12.7c-.11,.99,.02,13.36,5.36,18.95,4.82,5.08,6.22-10.23,7.34-18.95Z"/><path class="cls-5" d="M145.7,510.04h-11.35c-.05,.5,.84,11.4,4.69,15.35,3.27,3.34,5-5.29,6.65-15.35Z"/><path class="cls-5" d="M134.95,510.04s4.72,27.56,9.99,0h-9.99Z"/></g><g><path class="cls-8" d="M148.19,510.04c-.22,2.36-1.57,20.52,6.7,31.08,7.94,10.14,8.65-23.92,8.71-31.08h-15.41Z"/><path class="cls-11" d="M162.85,510.04h-14.06c-.16,1.77-.77,18.2,6.03,26.81,6.38,8.09,7.43-18.04,8.03-26.81Z"/><path class="cls-2" d="M162.09,510.04h-12.7c-.11,1.18,.03,15.88,5.36,22.53,4.82,6.04,6.22-12.16,7.34-22.53Z"/><path class="cls-5" d="M161.33,510.04h-11.34c-.05,.59,.83,13.56,4.69,18.25,3.27,3.97,5-6.28,6.65-18.25Z"/><path class="cls-5" d="M150.58,510.04s4.72,32.77,9.99,0h-9.99Z"/></g></g><g><g><path class="cls-8" d="M210.22,510.04c-.22,1.8-1.57,15.69,6.7,23.77,7.94,7.75,8.65-18.29,8.71-23.77h-15.41Z"/><path class="cls-11" d="M224.87,510.04h-14.06c-.16,1.35-.77,13.92,6.03,20.5,6.38,6.19,7.43-13.79,8.03-20.5Z"/><path class="cls-2" d="M224.11,510.04h-12.7c-.11,.9,.03,12.14,5.36,17.23,4.82,4.61,6.22-9.3,7.34-17.23Z"/><path class="cls-5" d="M223.35,510.04h-11.35c-.05,.45,.84,10.37,4.69,13.95,3.27,3.04,5-4.81,6.65-13.95Z"/><path class="cls-5" d="M212.6,510.04s4.72,25.06,9.99,0h-9.99Z"/></g><g><path class="cls-8" d="M179.2,510.04c-.21,1.98-1.57,17.25,6.7,26.14,7.94,8.53,8.65-20.12,8.71-26.14h-15.41Z"/><path class="cls-11" d="M193.86,510.04h-14.06c-.16,1.49-.77,15.31,6.03,22.54,6.38,6.8,7.43-15.18,8.02-22.54Z"/><path class="cls-2" d="M193.1,510.04h-12.7c-.11,.99,.02,13.36,5.36,18.95,4.82,5.08,6.22-10.23,7.34-18.95Z"/><path class="cls-5" d="M192.34,510.04h-11.34c-.05,.5,.83,11.4,4.69,15.35,3.27,3.34,5-5.29,6.65-15.35Z"/><path class="cls-5" d="M181.59,510.04s4.72,27.56,9.99,0h-9.99Z"/></g><g><path class="cls-8" d="M194.83,510.04c-.21,2.36-1.57,20.52,6.7,31.08,7.94,10.14,8.65-23.92,8.71-31.08h-15.41Z"/><path class="cls-11" d="M209.49,510.04h-14.06c-.16,1.77-.77,18.2,6.03,26.81,6.38,8.09,7.43-18.04,8.03-26.81Z"/><path class="cls-2" d="M208.73,510.04h-12.7c-.11,1.18,.03,15.88,5.36,22.53,4.82,6.04,6.22-12.16,7.34-22.53Z"/><path class="cls-5" d="M207.97,510.04h-11.35c-.05,.59,.83,13.56,4.69,18.25,3.27,3.97,5-6.28,6.65-18.25Z"/><path class="cls-5" d="M197.22,510.04s4.72,32.77,9.99,0h-9.99Z"/></g></g><g><g><path class="cls-8" d="M256.86,510.04c-.22,1.8-1.57,15.69,6.7,23.77,7.94,7.75,8.65-18.29,8.71-23.77h-15.41Z"/><path class="cls-11" d="M271.51,510.04h-14.06c-.16,1.35-.77,13.92,6.03,20.5,6.38,6.19,7.43-13.79,8.03-20.5Z"/><path class="cls-2" d="M270.75,510.04h-12.7c-.11,.9,.03,12.14,5.36,17.23,4.82,4.61,6.22-9.3,7.34-17.23Z"/><path class="cls-5" d="M269.99,510.04h-11.35c-.05,.45,.83,10.37,4.69,13.95,3.27,3.04,5-4.81,6.65-13.95Z"/><path class="cls-5" d="M259.24,510.04s4.72,25.06,9.99,0h-9.99Z"/></g><g><path class="cls-8" d="M225.84,510.04c-.21,1.98-1.57,17.25,6.7,26.14,7.94,8.53,8.65-20.12,8.71-26.14h-15.41Z"/><path class="cls-11" d="M240.5,510.04h-14.06c-.16,1.49-.77,15.31,6.03,22.54,6.38,6.8,7.43-15.18,8.03-22.54Z"/><path class="cls-2" d="M239.74,510.04h-12.7c-.11,.99,.02,13.36,5.36,18.95,4.82,5.08,6.22-10.23,7.34-18.95Z"/><path class="cls-5" d="M238.98,510.04h-11.35c-.05,.5,.83,11.4,4.69,15.35,3.27,3.34,5-5.29,6.65-15.35Z"/><path class="cls-5" d="M228.23,510.04s4.72,27.56,9.99,0h-9.99Z"/></g><g><path class="cls-8" d="M241.47,510.04c-.22,2.36-1.57,20.52,6.7,31.08,7.94,10.14,8.65-23.92,8.71-31.08h-15.41Z"/><path class="cls-11" d="M256.12,510.04h-14.06c-.16,1.77-.77,18.2,6.03,26.81,6.38,8.09,7.43-18.04,8.03-26.81Z"/><path class="cls-2" d="M255.37,510.04h-12.7c-.11,1.18,.03,15.88,5.36,22.53,4.82,6.04,6.22-12.16,7.34-22.53Z"/><path class="cls-5" d="M254.6,510.04h-11.35c-.05,.59,.83,13.56,4.69,18.25,3.27,3.97,5-6.28,6.65-18.25Z"/><path class="cls-5" d="M243.86,510.04s4.72,32.77,9.99,0h-9.99Z"/></g></g></g><g><g><g><path class="cls-8" d="M303.03,510.04c-.22,1.8-1.57,15.69,6.7,23.77,7.94,7.75,8.65-18.29,8.71-23.77h-15.41Z"/><path class="cls-11" d="M317.68,510.04h-14.06c-.16,1.35-.77,13.92,6.03,20.5,6.38,6.19,7.43-13.79,8.02-20.5Z"/><path class="cls-2" d="M316.93,510.04h-12.7c-.11,.9,.03,12.14,5.36,17.23,4.82,4.61,6.22-9.3,7.34-17.23Z"/><path class="cls-5" d="M316.17,510.04h-11.35c-.05,.45,.83,10.37,4.69,13.95,3.27,3.04,5-4.81,6.65-13.95Z"/><path class="cls-5" d="M305.42,510.04s4.72,25.06,9.99,0h-9.99Z"/></g><g><path class="cls-8" d="M272.02,510.04c-.21,1.98-1.57,17.25,6.7,26.14,7.94,8.53,8.65-20.12,8.71-26.14h-15.41Z"/><path class="cls-11" d="M286.67,510.04h-14.06c-.16,1.49-.77,15.31,6.03,22.54,6.38,6.8,7.43-15.18,8.03-22.54Z"/><path class="cls-2" d="M285.91,510.04h-12.7c-.11,.99,.02,13.36,5.36,18.95,4.82,5.08,6.22-10.23,7.34-18.95Z"/><path class="cls-5" d="M285.15,510.04h-11.35c-.05,.5,.84,11.4,4.69,15.35,3.27,3.34,5-5.29,6.65-15.35Z"/><path class="cls-5" d="M274.41,510.04s4.72,27.56,9.99,0h-9.99Z"/></g><g><path class="cls-8" d="M287.64,510.04c-.22,2.36-1.57,20.52,6.7,31.08,7.94,10.14,8.65-23.92,8.71-31.08h-15.41Z"/><path class="cls-11" d="M302.3,510.04h-14.06c-.16,1.77-.77,18.2,6.03,26.81,6.38,8.09,7.43-18.04,8.03-26.81Z"/><path class="cls-2" d="M301.54,510.04h-12.7c-.11,1.18,.03,15.88,5.36,22.53,4.82,6.04,6.22-12.16,7.34-22.53Z"/><path class="cls-5" d="M300.78,510.04h-11.34c-.05,.59,.83,13.56,4.69,18.25,3.27,3.97,5-6.28,6.65-18.25Z"/><path class="cls-5" d="M290.03,510.04s4.72,32.77,9.99,0h-9.99Z"/></g></g><g><g><path class="cls-8" d="M349.67,510.04c-.22,1.8-1.57,15.69,6.7,23.77,7.94,7.75,8.65-18.29,8.71-23.77h-15.41Z"/><path class="cls-11" d="M364.32,510.04h-14.06c-.16,1.35-.77,13.92,6.03,20.5,6.38,6.19,7.43-13.79,8.02-20.5Z"/><path class="cls-2" d="M363.56,510.04h-12.7c-.11,.9,.03,12.14,5.36,17.23,4.82,4.61,6.22-9.3,7.34-17.23Z"/><path class="cls-5" d="M362.8,510.04h-11.35c-.05,.45,.83,10.37,4.69,13.95,3.27,3.04,5-4.81,6.65-13.95Z"/><path class="cls-5" d="M352.06,510.04s4.72,25.06,9.99,0h-9.99Z"/></g><g><path class="cls-8" d="M318.66,510.04c-.21,1.98-1.57,17.25,6.7,26.14,7.94,8.53,8.65-20.12,8.71-26.14h-15.41Z"/><path class="cls-11" d="M333.31,510.04h-14.06c-.16,1.49-.77,15.31,6.03,22.54,6.38,6.8,7.43-15.18,8.02-22.54Z"/><path class="cls-2" d="M332.55,510.04h-12.7c-.11,.99,.02,13.36,5.36,18.95,4.82,5.08,6.22-10.23,7.34-18.95Z"/><path class="cls-5" d="M331.79,510.04h-11.34c-.05,.5,.84,11.4,4.69,15.35,3.27,3.34,5-5.29,6.65-15.35Z"/><path class="cls-5" d="M321.04,510.04s4.72,27.56,9.99,0h-9.99Z"/></g><g><path class="cls-8" d="M334.28,510.04c-.21,2.36-1.57,20.52,6.7,31.08,7.94,10.14,8.65-23.92,8.71-31.08h-15.41Z"/><path class="cls-11" d="M348.94,510.04h-14.06c-.16,1.77-.77,18.2,6.03,26.81,6.38,8.09,7.43-18.04,8.03-26.81Z"/><path class="cls-2" d="M348.18,510.04h-12.7c-.11,1.18,.03,15.88,5.36,22.53,4.82,6.04,6.22-12.16,7.34-22.53Z"/><path class="cls-5" d="M347.42,510.04h-11.35c-.05,.59,.83,13.56,4.69,18.25,3.27,3.97,5-6.28,6.65-18.25Z"/><path class="cls-5" d="M336.67,510.04s4.72,32.77,9.99,0h-9.99Z"/></g></g><g><g><path class="cls-8" d="M396.31,510.04c-.22,1.8-1.57,15.69,6.7,23.77,7.94,7.75,8.65-18.29,8.71-23.77h-15.41Z"/><path class="cls-11" d="M410.96,510.04h-14.06c-.16,1.35-.77,13.92,6.03,20.5,6.38,6.19,7.43-13.79,8.03-20.5Z"/><path class="cls-2" d="M410.2,510.04h-12.7c-.11,.9,.03,12.14,5.36,17.23,4.82,4.61,6.22-9.3,7.34-17.23Z"/><path class="cls-5" d="M409.44,510.04h-11.35c-.05,.45,.83,10.37,4.69,13.95,3.26,3.04,5-4.81,6.65-13.95Z"/><path class="cls-5" d="M398.69,510.04s4.72,25.06,9.99,0h-9.99Z"/></g><g><path class="cls-8" d="M365.29,510.04c-.21,1.98-1.57,17.25,6.7,26.14,7.94,8.53,8.65-20.12,8.71-26.14h-15.41Z"/><path class="cls-11" d="M379.95,510.04h-14.06c-.16,1.49-.77,15.31,6.03,22.54,6.38,6.8,7.43-15.18,8.03-22.54Z"/><path class="cls-2" d="M379.19,510.04h-12.7c-.11,.99,.02,13.36,5.36,18.95,4.82,5.08,6.22-10.23,7.34-18.95Z"/><path class="cls-5" d="M378.43,510.04h-11.35c-.05,.5,.84,11.4,4.69,15.35,3.27,3.34,5-5.29,6.65-15.35Z"/><path class="cls-5" d="M367.68,510.04s4.72,27.56,9.99,0h-9.99Z"/></g><g><path class="cls-8" d="M380.92,510.04c-.22,2.36-1.57,20.52,6.7,31.08,7.94,10.14,8.65-23.92,8.71-31.08h-15.41Z"/><path class="cls-11" d="M395.57,510.04h-14.06c-.16,1.77-.77,18.2,6.03,26.81,6.38,8.09,7.43-18.04,8.03-26.81Z"/><path class="cls-2" d="M394.82,510.04h-12.7c-.11,1.18,.03,15.88,5.36,22.53,4.82,6.04,6.22-12.16,7.34-22.53Z"/><path class="cls-5" d="M394.06,510.04h-11.35c-.05,.59,.84,13.56,4.69,18.25,3.27,3.97,5-6.28,6.65-18.25Z"/><path class="cls-5" d="M383.31,510.04s4.72,32.77,9.99,0h-9.99Z"/></g></g></g></g></g><path class="cls-4" d="M778.8,439.03h-17.77c-.03,.35-.09,1.05-.13,2.03h-.11c.02-.81,.03-1.51,.04-2.03h-15.41c-.04,.33-.1,1.05-.15,2.03h-.1c.02-.82,.03-1.51,.04-2.03h-30.8c-.03,.35-.09,1.05-.14,2.03h-.11c.02-.81,.03-1.51,.04-2.03h-45.96c-.03,.35-.09,1.05-.14,2.03h-.11c.02-.81,.03-1.51,.03-2.03h-15.41c-.04,.33-.1,1.05-.15,2.03h-.1c.02-.82,.03-1.51,.04-2.03h-30.8c-.03,.35-.09,1.05-.14,2.03h-.11c.02-.81,.03-1.51,.04-2.03h-15.41c-.04,.33-.1,1.05-.15,2.03h-.1c.02-.82,.03-1.51,.04-2.03h-30.8c-.03,.35-.09,1.05-.14,2.03h-.11c.02-.81,.03-1.51,.04-2.03h-15.41c-.08,.7-.29,3.06-.17,6.19-.14,3.5,.02,9.81,2.2,15.75v30.29l-.08-.05v12.33l.08,.05v56.65l-.08-.05v12.33l.08,.05v6.44h68.98v-6.49l.08,.05v6.44h68.98v-6.49l.08,.05v6.44h68.98v-6.49l.08,.05v6.44h12.25v-139.99h-1.96Zm-79.35,17.15v35.09l-.08-.05v-35.4c.02,.12,.05,.24,.08,.36Zm-69.06,19.36v15.72l-.08-.05v-15.71s.05,.02,.08,.03Zm69.06,84.71l-.08-.05v-56.65l.08,.05v56.65Zm68.98-69.03v-16.65s.05,.05,.08,.07v16.62l-.08-.05Zm-138.11,12.33l.08,.05v56.65l-.08-.05v-56.65Zm138.19,56.7l-.08-.05v-56.65l.08,.05v56.65Z"/><g><g><g><rect class="cls-4" x="561.34" y="510.04" width="68.98" height="68.98"/><polygon class="cls-3" points="619.69 553.23 618.78 552.62 617.08 552.62 609.07 552.62 607.37 552.62 606.45 553.23 595.83 560.25 585.2 553.23 584.29 552.62 582.59 552.62 574.58 552.62 572.87 552.62 571.96 553.23 561.34 560.25 561.26 560.2 561.26 566.62 561.34 566.67 571.96 559.65 578.58 555.27 585.2 559.65 595.83 566.67 606.45 559.65 613.08 555.27 619.69 559.65 630.14 566.55 630.14 560.13 619.69 553.23"/><polygon class="cls-3" points="619.69 559.13 618.78 558.53 617.08 558.53 609.07 558.53 607.37 558.53 606.45 559.13 595.83 566.16 585.2 559.13 584.29 558.53 582.59 558.53 574.58 558.53 572.87 558.53 571.96 559.13 561.34 566.16 561.26 566.1 561.26 572.53 561.34 572.58 571.96 565.55 578.58 561.18 585.2 565.55 595.83 572.58 606.45 565.55 613.08 561.18 619.69 565.55 630.14 572.46 630.14 566.04 619.69 559.13"/><polygon class="cls-6" points="619.69 556.18 618.78 555.58 617.08 555.58 609.07 555.58 607.37 555.58 606.45 556.18 595.83 563.2 585.2 556.18 584.29 555.58 582.59 555.58 574.58 555.58 572.87 555.58 571.96 556.18 561.34 563.2 561.26 563.15 561.26 569.58 561.34 569.63 571.96 562.6 578.58 558.22 585.2 562.6 595.83 569.63 606.45 562.6 613.08 558.22 619.69 562.6 630.14 569.51 630.14 563.08 619.69 556.18"/></g><g><rect class="cls-4" x="630.39" y="510.04" width="68.98" height="68.98"/><polygon class="cls-3" points="688.75 553.23 687.84 552.62 686.14 552.62 678.12 552.62 676.42 552.62 675.51 553.23 664.88 560.25 654.26 553.23 653.35 552.62 651.64 552.62 643.63 552.62 641.93 552.62 641.02 553.23 630.39 560.25 630.32 560.2 630.32 566.62 630.39 566.67 641.02 559.65 647.64 555.27 654.26 559.65 664.88 566.67 675.51 559.65 682.13 555.27 688.75 559.65 699.19 566.55 699.19 560.13 688.75 553.23"/><polygon class="cls-3" points="688.75 559.13 687.84 558.53 686.14 558.53 678.12 558.53 676.42 558.53 675.51 559.13 664.88 566.16 654.26 559.13 653.35 558.53 651.64 558.53 643.63 558.53 641.93 558.53 641.02 559.13 630.39 566.16 630.32 566.1 630.32 572.53 630.39 572.58 641.02 565.55 647.64 561.18 654.26 565.55 664.88 572.58 675.51 565.55 682.13 561.18 688.75 565.55 699.19 572.46 699.19 566.04 688.75 559.13"/><polygon class="cls-6" points="688.75 556.18 687.84 555.58 686.14 555.58 678.12 555.58 676.42 555.58 675.51 556.18 664.88 563.2 654.26 556.18 653.35 555.58 651.64 555.58 643.63 555.58 641.93 555.58 641.02 556.18 630.39 563.2 630.32 563.15 630.32 569.58 630.39 569.63 641.02 562.6 647.64 558.22 654.26 562.6 664.88 569.63 675.51 562.6 682.13 558.22 688.75 562.6 699.19 569.51 699.19 563.08 688.75 556.18"/></g><g><rect class="cls-4" x="699.45" y="510.04" width="68.98" height="68.98"/><polygon class="cls-3" points="757.8 553.23 756.89 552.62 755.19 552.62 747.18 552.62 745.48 552.62 744.57 553.23 733.94 560.25 723.32 553.23 722.41 552.62 720.7 552.62 712.69 552.62 710.99 552.62 710.08 553.23 699.45 560.25 699.37 560.2 699.37 566.62 699.45 566.67 710.08 559.65 716.7 555.27 723.32 559.65 733.94 566.67 744.57 559.65 751.19 555.27 757.8 559.65 768.25 566.55 768.25 560.13 757.8 553.23"/><polygon class="cls-3" points="757.8 559.13 756.89 558.53 755.19 558.53 747.18 558.53 745.48 558.53 744.57 559.13 733.94 566.16 723.32 559.13 722.41 558.53 720.7 558.53 712.69 558.53 710.99 558.53 710.08 559.13 699.45 566.16 699.37 566.1 699.37 572.53 699.45 572.58 710.08 565.55 716.7 561.18 723.32 565.55 733.94 572.58 744.57 565.55 751.19 561.18 757.8 565.55 768.25 572.46 768.25 566.04 757.8 559.13"/><polygon class="cls-6" points="757.8 556.18 756.89 555.58 755.19 555.58 747.18 555.58 745.48 555.58 744.57 556.18 733.94 563.2 723.32 556.18 722.41 555.58 720.7 555.58 712.69 555.58 710.99 555.58 710.08 556.18 699.45 563.2 699.37 563.15 699.37 569.58 699.45 569.63 710.08 562.6 716.7 558.22 723.32 562.6 733.94 569.63 744.57 562.6 751.19 558.22 757.8 562.6 768.25 569.51 768.25 563.08 757.8 556.18"/></g><g><rect class="cls-4" x="768.51" y="510.04" width="12.25" height="68.98"/><polygon class="cls-3" points="780.76 552.62 780.04 552.62 779.13 553.23 768.51 560.25 768.43 560.2 768.43 566.62 768.51 566.67 779.13 559.65 780.76 558.57 780.76 552.62"/><polygon class="cls-3" points="780.76 558.53 780.04 558.53 779.13 559.13 768.51 566.16 768.43 566.1 768.43 572.53 768.51 572.58 779.13 565.55 780.76 564.48 780.76 558.53"/><polygon class="cls-6" points="780.76 555.58 780.04 555.58 779.13 556.18 768.51 563.2 768.43 563.15 768.43 569.58 768.51 569.63 779.13 562.6 780.76 561.53 780.76 555.58"/></g></g><g><g><rect class="cls-4" x="561.34" y="441.06" width="68.98" height="68.98"/><polygon class="cls-3" points="619.69 484.24 618.78 483.64 617.08 483.64 609.07 483.64 607.37 483.64 606.45 484.24 595.83 491.27 585.2 484.24 584.29 483.64 582.59 483.64 574.58 483.64 572.87 483.64 571.96 484.24 561.34 491.27 561.26 491.22 561.26 497.64 561.34 497.69 571.96 490.67 578.58 486.29 585.2 490.67 595.83 497.69 606.45 490.67 613.08 486.29 619.69 490.67 630.14 497.57 630.14 491.15 619.69 484.24"/><polygon class="cls-3" points="619.69 490.15 618.78 489.55 617.08 489.55 609.07 489.55 607.37 489.55 606.45 490.15 595.83 497.17 585.2 490.15 584.29 489.55 582.59 489.55 574.58 489.55 572.87 489.55 571.96 490.15 561.34 497.17 561.26 497.12 561.26 503.55 561.34 503.6 571.96 496.57 578.58 492.19 585.2 496.57 595.83 503.6 606.45 496.57 613.08 492.19 619.69 496.57 630.14 503.48 630.14 497.05 619.69 490.15"/><polygon class="cls-6" points="619.69 487.2 618.78 486.59 617.08 486.59 609.07 486.59 607.37 486.59 606.45 487.2 595.83 494.22 585.2 487.2 584.29 486.59 582.59 486.59 574.58 486.59 572.87 486.59 571.96 487.2 561.34 494.22 561.26 494.17 561.26 500.59 561.34 500.65 571.96 493.62 578.58 489.24 585.2 493.62 595.83 500.65 606.45 493.62 613.08 489.24 619.69 493.62 630.14 500.53 630.14 494.1 619.69 487.2"/></g><g><rect class="cls-4" x="630.39" y="441.06" width="68.98" height="68.98"/><polygon class="cls-3" points="688.75 484.24 687.84 483.64 686.14 483.64 678.12 483.64 676.42 483.64 675.51 484.24 664.88 491.27 654.26 484.24 653.35 483.64 651.64 483.64 643.63 483.64 641.93 483.64 641.02 484.24 630.39 491.27 630.32 491.22 630.32 497.64 630.39 497.69 641.02 490.67 647.64 486.29 654.26 490.67 664.88 497.69 675.51 490.67 682.13 486.29 688.75 490.67 699.19 497.57 699.19 491.15 688.75 484.24"/><polygon class="cls-3" points="688.75 490.15 687.84 489.55 686.14 489.55 678.12 489.55 676.42 489.55 675.51 490.15 664.88 497.17 654.26 490.15 653.35 489.55 651.64 489.55 643.63 489.55 641.93 489.55 641.02 490.15 630.39 497.17 630.32 497.12 630.32 503.55 630.39 503.6 641.02 496.57 647.64 492.19 654.26 496.57 664.88 503.6 675.51 496.57 682.13 492.19 688.75 496.57 699.19 503.48 699.19 497.05 688.75 490.15"/><polygon class="cls-6" points="688.75 487.2 687.84 486.59 686.14 486.59 678.12 486.59 676.42 486.59 675.51 487.2 664.88 494.22 654.26 487.2 653.35 486.59 651.64 486.59 643.63 486.59 641.93 486.59 641.02 487.2 630.39 494.22 630.32 494.17 630.32 500.59 630.39 500.65 641.02 493.62 647.64 489.24 654.26 493.62 664.88 500.65 675.51 493.62 682.13 489.24 688.75 493.62 699.19 500.53 699.19 494.1 688.75 487.2"/></g><g><rect class="cls-4" x="699.45" y="441.06" width="68.98" height="68.98"/><polygon class="cls-3" points="757.8 484.24 756.89 483.64 755.19 483.64 747.18 483.64 745.48 483.64 744.57 484.24 733.94 491.27 723.32 484.24 722.41 483.64 720.7 483.64 712.69 483.64 710.99 483.64 710.08 484.24 699.45 491.27 699.37 491.22 699.37 497.64 699.45 497.69 710.08 490.67 716.7 486.29 723.32 490.67 733.94 497.69 744.57 490.67 751.19 486.29 757.8 490.67 768.25 497.57 768.25 491.15 757.8 484.24"/><polygon class="cls-3" points="757.8 490.15 756.89 489.55 755.19 489.55 747.18 489.55 745.48 489.55 744.57 490.15 733.94 497.17 723.32 490.15 722.41 489.55 720.7 489.55 712.69 489.55 710.99 489.55 710.08 490.15 699.45 497.17 699.37 497.12 699.37 503.55 699.45 503.6 710.08 496.57 716.7 492.19 723.32 496.57 733.94 503.6 744.57 496.57 751.19 492.19 757.8 496.57 768.25 503.48 768.25 497.05 757.8 490.15"/><polygon class="cls-6" points="757.8 487.2 756.89 486.59 755.19 486.59 747.18 486.59 745.48 486.59 744.57 487.2 733.94 494.22 723.32 487.2 722.41 486.59 720.7 486.59 712.69 486.59 710.99 486.59 710.08 487.2 699.45 494.22 699.37 494.17 699.37 500.59 699.45 500.65 710.08 493.62 716.7 489.24 723.32 493.62 733.94 500.65 744.57 493.62 751.19 489.24 757.8 493.62 768.25 500.53 768.25 494.1 757.8 487.2"/></g><g><rect class="cls-4" x="768.51" y="441.06" width="12.25" height="68.98"/><polygon class="cls-3" points="780.76 483.64 780.04 483.64 779.13 484.24 768.51 491.27 768.43 491.22 768.43 497.64 768.51 497.69 779.13 490.67 780.76 489.59 780.76 483.64"/><polygon class="cls-3" points="780.76 489.55 780.04 489.55 779.13 490.15 768.51 497.17 768.43 497.12 768.43 503.55 768.51 503.6 779.13 496.57 780.76 495.5 780.76 489.55"/><polygon class="cls-6" points="780.76 486.59 780.04 486.59 779.13 487.2 768.51 494.22 768.43 494.17 768.43 500.59 768.51 500.65 779.13 493.62 780.76 492.54 780.76 486.59"/></g></g><g><g><path class="cls-9" d="M604.22,442.7h-29.28c-.22,2.36-1.57,20.51,6.7,31.08,6.41,8.2,8.11-12.46,8.56-24.48,.33,5.18,1.8,12.25,6.83,17.16,7.94,7.75,8.65-18.29,8.71-23.77h-1.52Z"/><path class="cls-9" d="M573.96,442.7h-14.65c-.21,1.98-1.57,17.25,6.7,26.14,7.94,8.53,8.65-20.12,8.71-26.14h-.76Z"/><path class="cls-9" d="M650.86,442.7h-29.28c-.22,2.36-1.57,20.51,6.7,31.08,6.41,8.2,8.11-12.46,8.56-24.48,.33,5.19,1.8,12.25,6.83,17.16,7.94,7.75,8.65-18.29,8.71-23.77h-1.52Z"/><path class="cls-9" d="M620.6,442.7h-14.65c-.21,1.98-1.57,17.25,6.7,26.14,7.94,8.53,8.65-20.12,8.71-26.14h-.76Z"/><path class="cls-9" d="M667.24,442.7h-14.66c-.21,1.98-1.57,17.25,6.7,26.14,7.94,8.53,8.65-20.12,8.71-26.14h-.76Z"/><path class="cls-9" d="M743.67,442.7h-29.28c-.22,2.36-1.57,20.51,6.7,31.08,6.41,8.2,8.11-12.46,8.56-24.48,.33,5.18,1.8,12.25,6.83,17.16,7.94,7.75,8.65-18.29,8.71-23.77h-1.52Z"/><path class="cls-9" d="M713.42,442.7h-45.2c-.22,2.36-1.57,20.51,6.7,31.08,6.41,8.2,8.11-12.46,8.56-24.48,.33,5.19,1.8,12.25,6.83,17.16,5.77,5.64,7.72-6.58,8.38-15.77,.41,5.62,1.96,12.97,6.78,18.15,7.94,8.53,8.65-20.12,8.71-26.14h-.76Z"/><path class="cls-9" d="M780.76,442.7h-19.73c-.21,2.36-1.57,20.51,6.7,31.08,6.41,8.2,8.11-12.46,8.56-24.48,.27,4.25,1.34,9.74,4.47,14.3v-20.9Z"/><path class="cls-9" d="M760.05,442.7h-14.65c-.21,1.98-1.57,17.25,6.7,26.14,7.94,8.53,8.65-20.12,8.71-26.14h-.76Z"/></g><g><g><g><path class="cls-8" d="M590.32,439.03c-.22,1.8-1.57,15.69,6.7,23.77,7.94,7.75,8.65-18.29,8.71-23.77h-15.41Z"/><path class="cls-11" d="M604.98,439.03h-14.06c-.16,1.35-.77,13.92,6.03,20.5,6.38,6.19,7.43-13.79,8.03-20.5Z"/><path class="cls-2" d="M604.22,439.03h-12.7c-.11,.9,.03,12.15,5.36,17.23,4.82,4.61,6.22-9.3,7.34-17.23Z"/><path class="cls-5" d="M603.46,439.03h-11.35c-.05,.45,.83,10.37,4.69,13.96,3.27,3.04,5-4.81,6.65-13.96Z"/><path class="cls-5" d="M592.71,439.03s4.72,25.06,9.99,0h-9.99Z"/></g><g><path class="cls-8" d="M559.31,439.03c-.21,1.98-1.57,17.25,6.7,26.14,7.94,8.53,8.65-20.12,8.71-26.14h-15.41Z"/><path class="cls-11" d="M573.96,439.03h-14.06c-.16,1.49-.77,15.31,6.03,22.54,6.38,6.8,7.43-15.18,8.03-22.54Z"/><path class="cls-2" d="M573.2,439.03h-12.7c-.11,.99,.02,13.36,5.36,18.95,4.82,5.08,6.22-10.23,7.34-18.95Z"/><path class="cls-5" d="M572.45,439.03h-11.35c-.05,.5,.84,11.4,4.69,15.35,3.27,3.34,5-5.29,6.65-15.35Z"/><path class="cls-5" d="M561.7,439.03s4.72,27.56,9.99,0h-9.99Z"/></g><g><path class="cls-8" d="M574.94,439.03c-.22,2.36-1.57,20.52,6.7,31.08,7.94,10.14,8.65-23.92,8.71-31.08h-15.41Z"/><path class="cls-11" d="M589.59,439.03h-14.06c-.16,1.77-.77,18.2,6.03,26.81,6.38,8.09,7.43-18.04,8.03-26.81Z"/><path class="cls-2" d="M588.83,439.03h-12.7c-.11,1.18,.03,15.88,5.36,22.53,4.82,6.04,6.22-12.16,7.34-22.53Z"/><path class="cls-5" d="M588.07,439.03h-11.34c-.05,.59,.83,13.56,4.69,18.25,3.27,3.97,5-6.29,6.65-18.25Z"/><path class="cls-5" d="M577.32,439.03s4.72,32.77,9.99,0h-9.99Z"/></g></g><g><g><path class="cls-8" d="M636.96,439.03c-.22,1.8-1.57,15.69,6.7,23.77,7.94,7.75,8.65-18.29,8.71-23.77h-15.41Z"/><path class="cls-11" d="M651.62,439.03h-14.06c-.16,1.35-.77,13.92,6.03,20.5,6.38,6.19,7.43-13.79,8.03-20.5Z"/><path class="cls-2" d="M650.86,439.03h-12.7c-.11,.9,.03,12.15,5.36,17.23,4.82,4.61,6.22-9.3,7.34-17.23Z"/><path class="cls-5" d="M650.1,439.03h-11.35c-.05,.45,.83,10.37,4.7,13.96,3.27,3.04,5-4.81,6.65-13.96Z"/><path class="cls-5" d="M639.35,439.03s4.72,25.06,9.99,0h-9.99Z"/></g><g><path class="cls-8" d="M605.95,439.03c-.21,1.98-1.57,17.25,6.7,26.14,7.94,8.53,8.65-20.12,8.71-26.14h-15.41Z"/><path class="cls-11" d="M620.6,439.03h-14.06c-.16,1.49-.77,15.31,6.03,22.54,6.38,6.8,7.43-15.18,8.03-22.54Z"/><path class="cls-2" d="M619.84,439.03h-12.7c-.11,.99,.02,13.36,5.36,18.95,4.82,5.08,6.22-10.23,7.34-18.95Z"/><path class="cls-5" d="M619.08,439.03h-11.34c-.05,.5,.83,11.4,4.69,15.35,3.27,3.34,5-5.29,6.65-15.35Z"/><path class="cls-5" d="M608.33,439.03s4.72,27.56,9.99,0h-9.99Z"/></g><g><path class="cls-8" d="M621.57,439.03c-.22,2.36-1.57,20.52,6.7,31.08,7.94,10.14,8.65-23.92,8.71-31.08h-15.41Z"/><path class="cls-11" d="M636.23,439.03h-14.06c-.16,1.77-.77,18.2,6.03,26.81,6.38,8.09,7.43-18.04,8.02-26.81Z"/><path class="cls-2" d="M635.47,439.03h-12.7c-.11,1.18,.03,15.88,5.36,22.53,4.82,6.04,6.22-12.16,7.34-22.53Z"/><path class="cls-5" d="M634.71,439.03h-11.35c-.05,.59,.83,13.56,4.69,18.25,3.27,3.97,5-6.29,6.65-18.25Z"/><path class="cls-5" d="M623.96,439.03s4.72,32.77,9.99,0h-9.99Z"/></g></g><g><g><path class="cls-8" d="M683.6,439.03c-.22,1.8-1.57,15.69,6.7,23.77,7.94,7.75,8.65-18.29,8.71-23.77h-15.41Z"/><path class="cls-11" d="M698.25,439.03h-14.06c-.16,1.35-.77,13.92,6.03,20.5,6.38,6.19,7.43-13.79,8.03-20.5Z"/><path class="cls-2" d="M697.5,439.03h-12.7c-.11,.9,.03,12.15,5.36,17.23,4.82,4.61,6.22-9.3,7.34-17.23Z"/><path class="cls-5" d="M696.74,439.03h-11.35c-.05,.45,.83,10.37,4.69,13.96,3.27,3.04,5-4.81,6.65-13.96Z"/><path class="cls-5" d="M685.99,439.03s4.72,25.06,9.99,0h-9.99Z"/></g><g><path class="cls-8" d="M652.59,439.03c-.21,1.98-1.57,17.25,6.7,26.14,7.94,8.53,8.65-20.12,8.71-26.14h-15.41Z"/><path class="cls-11" d="M667.24,439.03h-14.06c-.16,1.49-.77,15.31,6.03,22.54,6.38,6.8,7.43-15.18,8.03-22.54Z"/><path class="cls-2" d="M666.48,439.03h-12.7c-.11,.99,.02,13.36,5.36,18.95,4.82,5.08,6.22-10.23,7.34-18.95Z"/><path class="cls-5" d="M665.72,439.03h-11.35c-.05,.5,.83,11.4,4.69,15.35,3.27,3.34,5-5.29,6.65-15.35Z"/><path class="cls-5" d="M654.97,439.03s4.72,27.56,9.99,0h-9.99Z"/></g><g><path class="cls-8" d="M668.21,439.03c-.22,2.36-1.57,20.52,6.7,31.08,7.94,10.14,8.65-23.92,8.71-31.08h-15.41Z"/><path class="cls-11" d="M682.87,439.03h-14.06c-.16,1.77-.77,18.2,6.03,26.81,6.38,8.09,7.43-18.04,8.03-26.81Z"/><path class="cls-2" d="M682.11,439.03h-12.7c-.11,1.18,.03,15.88,5.36,22.53,4.82,6.04,6.22-12.16,7.34-22.53Z"/><path class="cls-5" d="M681.35,439.03h-11.35c-.05,.59,.83,13.56,4.69,18.25,3.27,3.97,5-6.29,6.65-18.25Z"/><path class="cls-5" d="M670.6,439.03s4.72,32.77,9.99,0h-9.99Z"/></g></g></g><g><g><g><path class="cls-8" d="M729.77,439.03c-.22,1.8-1.57,15.69,6.7,23.77,7.94,7.75,8.65-18.29,8.71-23.77h-15.41Z"/><path class="cls-11" d="M744.43,439.03h-14.06c-.16,1.35-.77,13.92,6.03,20.5,6.38,6.19,7.43-13.79,8.03-20.5Z"/><path class="cls-2" d="M743.67,439.03h-12.7c-.11,.9,.03,12.15,5.36,17.23,4.82,4.61,6.22-9.3,7.34-17.23Z"/><path class="cls-5" d="M742.91,439.03h-11.35c-.05,.45,.83,10.37,4.69,13.96,3.27,3.04,5-4.81,6.65-13.96Z"/><path class="cls-5" d="M732.16,439.03s4.72,25.06,9.99,0h-9.99Z"/></g><g><path class="cls-8" d="M698.76,439.03c-.21,1.98-1.57,17.25,6.7,26.14,7.94,8.53,8.65-20.12,8.71-26.14h-15.41Z"/><path class="cls-11" d="M713.42,439.03h-14.06c-.16,1.49-.77,15.31,6.03,22.54,6.38,6.8,7.43-15.18,8.03-22.54Z"/><path class="cls-2" d="M712.66,439.03h-12.7c-.11,.99,.02,13.36,5.36,18.95,4.82,5.08,6.22-10.23,7.34-18.95Z"/><path class="cls-5" d="M711.9,439.03h-11.35c-.05,.5,.84,11.4,4.69,15.35,3.27,3.34,5-5.29,6.65-15.35Z"/><path class="cls-5" d="M701.15,439.03s4.72,27.56,9.99,0h-9.99Z"/></g><g><path class="cls-8" d="M714.39,439.03c-.22,2.36-1.57,20.52,6.7,31.08,7.94,10.14,8.65-23.92,8.71-31.08h-15.41Z"/><path class="cls-11" d="M729.04,439.03h-14.06c-.16,1.77-.77,18.2,6.03,26.81,6.38,8.09,7.43-18.04,8.03-26.81Z"/><path class="cls-2" d="M728.28,439.03h-12.7c-.11,1.18,.03,15.88,5.36,22.53,4.82,6.04,6.22-12.16,7.34-22.53Z"/><path class="cls-5" d="M727.52,439.03h-11.34c-.05,.59,.83,13.56,4.69,18.25,3.27,3.97,5-6.29,6.65-18.25Z"/><path class="cls-5" d="M716.77,439.03s4.72,32.77,9.99,0h-9.99Z"/></g></g><g><g><path class="cls-8" d="M780.76,439.03h-4.34c-.19,1.61-1.27,12.79,4.34,20.93v-20.93Z"/><path class="cls-11" d="M780.76,439.03h-3.75c-.14,1.17-.62,10.84,3.75,17.67v-17.67Z"/><path class="cls-2" d="M780.76,439.03h-3.15c-.09,.75,0,8.73,3.15,14.3v-14.3Z"/><path class="cls-5" d="M780.76,439.03h-2.55c-.04,.35,.49,6.44,2.55,10.81v-10.81Z"/><path class="cls-5" d="M780.76,439.03h-1.96s.74,3.91,1.96,7.1v-7.1Z"/></g><g><path class="cls-8" d="M745.4,439.03c-.21,1.98-1.57,17.25,6.7,26.14,7.94,8.53,8.65-20.12,8.71-26.14h-15.41Z"/><path class="cls-11" d="M760.05,439.03h-14.06c-.16,1.49-.77,15.31,6.03,22.54,6.38,6.8,7.43-15.18,8.03-22.54Z"/><path class="cls-2" d="M759.3,439.03h-12.7c-.11,.99,.02,13.36,5.36,18.95,4.82,5.08,6.22-10.23,7.34-18.95Z"/><path class="cls-5" d="M758.54,439.03h-11.34c-.05,.5,.83,11.4,4.69,15.35,3.27,3.34,5-5.29,6.65-15.35Z"/><path class="cls-5" d="M747.79,439.03s4.72,27.56,9.99,0h-9.99Z"/></g><g><path class="cls-8" d="M761.03,439.03c-.21,2.36-1.57,20.52,6.7,31.08,7.94,10.14,8.65-23.92,8.71-31.08h-15.41Z"/><path class="cls-11" d="M775.68,439.03h-14.06c-.16,1.77-.77,18.2,6.03,26.81,6.38,8.09,7.43-18.04,8.03-26.81Z"/><path class="cls-2" d="M774.92,439.03h-12.7c-.11,1.18,.03,15.88,5.36,22.53,4.82,6.04,6.22-12.16,7.34-22.53Z"/><path class="cls-5" d="M774.16,439.03h-11.35c-.05,.59,.83,13.56,4.69,18.25,3.27,3.97,5-6.29,6.65-18.25Z"/><path class="cls-5" d="M763.41,439.03s4.72,32.77,9.99,0h-9.99Z"/></g></g></g></g></g><g><g><g><rect class="cls-4" x="931.2" y="510.04" width="68.8" height="68.98"/><polygon class="cls-3" points="1000 560.14 989.55 553.23 988.64 552.62 977.22 552.62 976.31 553.23 965.68 560.25 955.06 553.23 954.15 552.62 942.73 552.62 941.82 553.23 931.38 560.13 931.38 566.55 941.82 559.65 948.44 555.27 955.06 559.65 965.68 566.67 976.31 559.65 982.93 555.27 989.55 559.65 1000 566.56 1000 560.14"/><polygon class="cls-3" points="1000 566.04 989.55 559.13 988.64 558.53 977.22 558.53 976.31 559.13 965.68 566.16 955.06 559.13 954.15 558.53 942.73 558.53 941.82 559.13 931.38 566.04 931.38 572.46 941.82 565.55 948.44 561.18 955.06 565.55 965.68 572.58 976.31 565.55 982.93 561.18 989.55 565.55 1000 572.46 1000 566.04"/><polygon class="cls-6" points="1000 563.09 989.55 556.18 988.64 555.58 977.22 555.58 976.31 556.18 965.68 563.2 955.06 556.18 954.15 555.58 942.73 555.58 941.82 556.18 931.38 563.08 931.38 569.51 941.82 562.6 948.44 558.22 955.06 562.6 965.68 569.63 976.31 562.6 982.93 558.22 989.55 562.6 1000 569.51 1000 563.09"/></g><g><rect class="cls-4" x="862.14" y="510.04" width="68.98" height="68.98"/><polygon class="cls-3" points="872.76 553.23 873.68 552.62 875.38 552.62 883.39 552.62 885.09 552.62 886 553.23 896.63 560.25 907.25 553.23 908.16 552.62 909.87 552.62 917.88 552.62 919.58 552.62 920.5 553.23 931.12 560.25 931.2 560.2 931.2 566.62 931.12 566.67 920.5 559.65 913.88 555.27 907.25 559.65 896.63 566.67 886 559.65 879.38 555.27 872.76 559.65 862.32 566.55 862.32 560.13 872.76 553.23"/><polygon class="cls-3" points="872.76 559.13 873.68 558.53 875.38 558.53 883.39 558.53 885.09 558.53 886 559.13 896.63 566.16 907.25 559.13 908.16 558.53 909.87 558.53 917.88 558.53 919.58 558.53 920.5 559.13 931.12 566.16 931.2 566.1 931.2 572.53 931.12 572.58 920.5 565.55 913.88 561.18 907.25 565.55 896.63 572.58 886 565.55 879.38 561.18 872.76 565.55 862.32 572.46 862.32 566.04 872.76 559.13"/><polygon class="cls-6" points="872.76 556.18 873.68 555.58 875.38 555.58 883.39 555.58 885.09 555.58 886 556.18 896.63 563.2 907.25 556.18 908.16 555.58 909.87 555.58 917.88 555.58 919.58 555.58 920.5 556.18 931.12 563.2 931.2 563.15 931.2 569.58 931.12 569.63 920.5 562.6 913.88 558.22 907.25 562.6 896.63 569.63 886 562.6 879.38 558.22 872.76 562.6 862.32 569.51 862.32 563.08 872.76 556.18"/></g><g><rect class="cls-4" x="793.08" y="510.04" width="68.98" height="68.98"/><polygon class="cls-3" points="803.71 553.23 804.62 552.62 806.32 552.62 814.33 552.62 816.04 552.62 816.95 553.23 827.57 560.25 838.2 553.23 839.11 552.62 840.81 552.62 848.82 552.62 850.53 552.62 851.44 553.23 862.06 560.25 862.14 560.2 862.14 566.62 862.06 566.67 851.44 559.65 844.82 555.27 838.2 559.65 827.57 566.67 816.95 559.65 810.33 555.27 803.71 559.65 793.27 566.55 793.27 560.13 803.71 553.23"/><polygon class="cls-3" points="803.71 559.13 804.62 558.53 806.32 558.53 814.33 558.53 816.04 558.53 816.95 559.13 827.57 566.16 838.2 559.13 839.11 558.53 840.81 558.53 848.82 558.53 850.53 558.53 851.44 559.13 862.06 566.16 862.14 566.1 862.14 572.53 862.06 572.58 851.44 565.55 844.82 561.18 838.2 565.55 827.57 572.58 816.95 565.55 810.33 561.18 803.71 565.55 793.27 572.46 793.27 566.04 803.71 559.13"/><polygon class="cls-6" points="803.71 556.18 804.62 555.58 806.32 555.58 814.33 555.58 816.04 555.58 816.95 556.18 827.57 563.2 838.2 556.18 839.11 555.58 840.81 555.58 848.82 555.58 850.53 555.58 851.44 556.18 862.06 563.2 862.14 563.15 862.14 569.58 862.06 569.63 851.44 562.6 844.82 558.22 838.2 562.6 827.57 569.63 816.95 562.6 810.33 558.22 803.71 562.6 793.27 569.51 793.27 563.08 803.71 556.18"/></g><g><rect class="cls-4" x="780.76" y="510.04" width="12.25" height="68.98"/><polygon class="cls-3" points="780.76 552.62 781.47 552.62 782.38 553.23 793.01 560.25 793.08 560.2 793.08 566.62 793.01 566.67 782.38 559.65 780.76 558.57 780.76 552.62"/><polygon class="cls-3" points="780.76 558.53 781.47 558.53 782.38 559.13 793.01 566.16 793.08 566.1 793.08 572.53 793.01 572.58 782.38 565.55 780.76 564.48 780.76 558.53"/><polygon class="cls-6" points="780.76 555.58 781.47 555.58 782.38 556.18 793.01 563.2 793.08 563.15 793.08 569.58 793.01 569.63 782.38 562.6 780.76 561.53 780.76 555.58"/></g></g><g><g><rect class="cls-4" x="931.2" y="441.06" width="68.8" height="68.98"/><polygon class="cls-3" points="1000 491.15 989.55 484.24 988.64 483.64 977.22 483.64 976.31 484.24 965.68 491.27 955.06 484.24 954.15 483.64 942.73 483.64 941.82 484.24 931.38 491.15 931.38 497.57 941.82 490.67 948.44 486.29 955.06 490.67 965.68 497.69 976.31 490.67 982.93 486.29 989.55 490.67 1000 497.58 1000 491.15"/><polygon class="cls-3" points="1000 497.06 989.55 490.15 988.64 489.55 977.22 489.55 976.31 490.15 965.68 497.17 955.06 490.15 954.15 489.55 942.73 489.55 941.82 490.15 931.38 497.05 931.38 503.48 941.82 496.57 948.44 492.19 955.06 496.57 965.68 503.6 976.31 496.57 982.93 492.19 989.55 496.57 1000 503.48 1000 497.06"/><polygon class="cls-6" points="1000 494.11 989.55 487.2 988.64 486.59 977.22 486.59 976.31 487.2 965.68 494.22 955.06 487.2 954.15 486.59 942.73 486.59 941.82 487.2 931.38 494.1 931.38 500.53 941.82 493.62 948.44 489.24 955.06 493.62 965.68 500.65 976.31 493.62 982.93 489.24 989.55 493.62 1000 500.53 1000 494.11"/></g><g><rect class="cls-4" x="862.14" y="441.06" width="68.98" height="68.98"/><polygon class="cls-3" points="872.76 484.24 873.68 483.64 875.38 483.64 883.39 483.64 885.09 483.64 886 484.24 896.63 491.27 907.25 484.24 908.16 483.64 909.87 483.64 917.88 483.64 919.58 483.64 920.5 484.24 931.12 491.27 931.2 491.22 931.2 497.64 931.12 497.69 920.5 490.67 913.88 486.29 907.25 490.67 896.63 497.69 886 490.67 879.38 486.29 872.76 490.67 862.32 497.57 862.32 491.15 872.76 484.24"/><polygon class="cls-3" points="872.76 490.15 873.68 489.55 875.38 489.55 883.39 489.55 885.09 489.55 886 490.15 896.63 497.17 907.25 490.15 908.16 489.55 909.87 489.55 917.88 489.55 919.58 489.55 920.5 490.15 931.12 497.17 931.2 497.12 931.2 503.55 931.12 503.6 920.5 496.57 913.88 492.19 907.25 496.57 896.63 503.6 886 496.57 879.38 492.19 872.76 496.57 862.32 503.48 862.32 497.05 872.76 490.15"/><polygon class="cls-6" points="872.76 487.2 873.68 486.59 875.38 486.59 883.39 486.59 885.09 486.59 886 487.2 896.63 494.22 907.25 487.2 908.16 486.59 909.87 486.59 917.88 486.59 919.58 486.59 920.5 487.2 931.12 494.22 931.2 494.17 931.2 500.59 931.12 500.65 920.5 493.62 913.88 489.24 907.25 493.62 896.63 500.65 886 493.62 879.38 489.24 872.76 493.62 862.32 500.53 862.32 494.1 872.76 487.2"/></g><g><rect class="cls-4" x="793.08" y="441.06" width="68.98" height="68.98"/><polygon class="cls-3" points="803.71 484.24 804.62 483.64 806.32 483.64 814.33 483.64 816.04 483.64 816.95 484.24 827.57 491.27 838.2 484.24 839.11 483.64 840.81 483.64 848.82 483.64 850.53 483.64 851.44 484.24 862.06 491.27 862.14 491.22 862.14 497.64 862.06 497.69 851.44 490.67 844.82 486.29 838.2 490.67 827.57 497.69 816.95 490.67 810.33 486.29 803.71 490.67 793.27 497.57 793.27 491.15 803.71 484.24"/><polygon class="cls-3" points="803.71 490.15 804.62 489.55 806.32 489.55 814.33 489.55 816.04 489.55 816.95 490.15 827.57 497.17 838.2 490.15 839.11 489.55 840.81 489.55 848.82 489.55 850.53 489.55 851.44 490.15 862.06 497.17 862.14 497.12 862.14 503.55 862.06 503.6 851.44 496.57 844.82 492.19 838.2 496.57 827.57 503.6 816.95 496.57 810.33 492.19 803.71 496.57 793.27 503.48 793.27 497.05 803.71 490.15"/><polygon class="cls-6" points="803.71 487.2 804.62 486.59 806.32 486.59 814.33 486.59 816.04 486.59 816.95 487.2 827.57 494.22 838.2 487.2 839.11 486.59 840.81 486.59 848.82 486.59 850.53 486.59 851.44 487.2 862.06 494.22 862.14 494.17 862.14 500.59 862.06 500.65 851.44 493.62 844.82 489.24 838.2 493.62 827.57 500.65 816.95 493.62 810.33 489.24 803.71 493.62 793.27 500.53 793.27 494.1 803.71 487.2"/></g><g><rect class="cls-4" x="780.76" y="441.06" width="12.25" height="68.98"/><polygon class="cls-3" points="780.76 483.64 781.47 483.64 782.38 484.24 793.01 491.27 793.08 491.22 793.08 497.64 793.01 497.69 782.38 490.67 780.76 489.59 780.76 483.64"/><polygon class="cls-3" points="780.76 489.55 781.47 489.55 782.38 490.15 793.01 497.17 793.08 497.12 793.08 503.55 793.01 503.6 782.38 496.57 780.76 495.5 780.76 489.55"/><polygon class="cls-6" points="780.76 486.59 781.47 486.59 782.38 487.2 793.01 494.22 793.08 494.17 793.08 500.59 793.01 500.65 782.38 493.62 780.76 492.54 780.76 486.59"/></g></g><g><g><path class="cls-9" d="M957.3,442.7h29.28c.22,2.36,1.57,20.51-6.7,31.08-6.41,8.2-8.11-12.46-8.56-24.48-.33,5.18-1.8,12.25-6.83,17.16-7.94,7.75-8.65-18.29-8.71-23.77h1.52Z"/><path class="cls-9" d="M1000,442.7h-13.21c.06,6.02,.77,34.67,8.71,26.14,2.03-2.18,3.47-4.74,4.5-7.39v-18.75Z"/><path class="cls-9" d="M910.66,442.7h29.28c.22,2.36,1.57,20.51-6.7,31.08-6.41,8.2-8.11-12.46-8.56-24.48-.33,5.19-1.8,12.25-6.83,17.16-7.94,7.75-8.65-18.29-8.71-23.77h1.52Z"/><path class="cls-9" d="M940.91,442.7h14.65c.21,1.98,1.57,17.25-6.7,26.14-7.94,8.53-8.65-20.12-8.71-26.14h.76Z"/><path class="cls-9" d="M894.27,442.7h14.65c.21,1.98,1.57,17.25-6.7,26.14-7.94,8.53-8.65-20.12-8.71-26.14h.76Z"/><path class="cls-9" d="M817.84,442.7h29.28c.22,2.36,1.57,20.51-6.7,31.08-6.41,8.2-8.11-12.46-8.56-24.48-.33,5.18-1.8,12.25-6.83,17.16-7.94,7.75-8.65-18.29-8.71-23.77h1.52Z"/><path class="cls-9" d="M848.1,442.7h45.2c.22,2.36,1.57,20.51-6.7,31.08-6.41,8.2-8.11-12.46-8.56-24.48-.33,5.19-1.8,12.25-6.83,17.16-5.77,5.64-7.72-6.58-8.38-15.77-.41,5.62-1.96,12.97-6.78,18.15-7.94,8.53-8.65-20.12-8.71-26.14h.76Z"/><path class="cls-9" d="M780.76,442.7h19.73c.22,2.36,1.57,20.51-6.7,31.08-6.41,8.2-8.11-12.46-8.56-24.48-.27,4.25-1.34,9.74-4.47,14.3v-20.9Z"/><path class="cls-9" d="M801.46,442.7h14.65c.21,1.98,1.57,17.25-6.7,26.14-7.94,8.53-8.65-20.12-8.71-26.14h.76Z"/></g><g><g><g><path class="cls-8" d="M971.19,439.03c.22,1.8,1.57,15.69-6.7,23.77-7.94,7.75-8.65-18.29-8.71-23.77h15.41Z"/><path class="cls-11" d="M956.54,439.03h14.06c.16,1.35,.77,13.92-6.03,20.5-6.38,6.19-7.43-13.79-8.02-20.5Z"/><path class="cls-2" d="M957.3,439.03h12.7c.11,.9-.03,12.15-5.36,17.23-4.82,4.61-6.22-9.3-7.34-17.23Z"/><path class="cls-5" d="M958.06,439.03h11.35c.05,.45-.83,10.37-4.69,13.96-3.27,3.04-5-4.81-6.65-13.96Z"/><path class="cls-5" d="M968.81,439.03s-4.72,25.06-9.99,0h9.99Z"/></g><g><path class="cls-8" d="M1000,439.03h-13.21c.06,6.02,.77,34.67,8.71,26.14,2.03-2.18,3.47-4.74,4.5-7.39v-18.75Z"/><path class="cls-11" d="M1000,439.03h-12.45c.59,7.37,1.65,29.35,8.02,22.54,2.11-2.25,3.51-5.12,4.43-8.07v-14.47Z"/><path class="cls-2" d="M1000,439.03h-11.69c1.12,8.72,2.52,24.02,7.34,18.95,2.26-2.37,3.58-5.95,4.35-9.37v-9.58Z"/><path class="cls-5" d="M1000,439.03h-10.93c1.65,10.07,3.39,18.69,6.65,15.35,2.46-2.52,3.71-7.85,4.28-11.52v-3.83Z"/><path class="cls-5" d="M999.82,439.03s-4.72,27.56-9.99,0h9.99Z"/></g><g><path class="cls-8" d="M986.58,439.03c.22,2.36,1.57,20.52-6.7,31.08-7.94,10.14-8.65-23.92-8.71-31.08h15.41Z"/><path class="cls-11" d="M971.92,439.03h14.06c.16,1.77,.77,18.2-6.03,26.81-6.38,8.09-7.43-18.04-8.02-26.81Z"/><path class="cls-2" d="M972.68,439.03h12.7c.11,1.18-.03,15.88-5.36,22.53-4.82,6.04-6.22-12.16-7.34-22.53Z"/><path class="cls-5" d="M973.44,439.03h11.34c.05,.59-.83,13.56-4.69,18.25-3.27,3.97-5-6.29-6.65-18.25Z"/><path class="cls-5" d="M984.19,439.03s-4.72,32.77-9.99,0h9.99Z"/></g></g><g><g><path class="cls-8" d="M924.55,439.03c.22,1.8,1.57,15.69-6.7,23.77-7.94,7.75-8.65-18.29-8.71-23.77h15.41Z"/><path class="cls-11" d="M909.9,439.03h14.06c.16,1.35,.77,13.92-6.03,20.5-6.38,6.19-7.43-13.79-8.02-20.5Z"/><path class="cls-2" d="M910.66,439.03h12.7c.11,.9-.03,12.15-5.36,17.23-4.82,4.61-6.22-9.3-7.34-17.23Z"/><path class="cls-5" d="M911.42,439.03h11.35c.05,.45-.83,10.37-4.69,13.96-3.27,3.04-5-4.81-6.65-13.96Z"/><path class="cls-5" d="M922.17,439.03s-4.72,25.06-9.99,0h9.99Z"/></g><g><path class="cls-8" d="M955.57,439.03c.21,1.98,1.57,17.25-6.7,26.14-7.94,8.53-8.65-20.12-8.71-26.14h15.41Z"/><path class="cls-11" d="M940.91,439.03h14.06c.16,1.49,.77,15.31-6.03,22.54-6.38,6.8-7.43-15.18-8.02-22.54Z"/><path class="cls-2" d="M941.67,439.03h12.7c.11,.99-.02,13.36-5.36,18.95-4.82,5.08-6.22-10.23-7.34-18.95Z"/><path class="cls-5" d="M942.43,439.03h11.34c.05,.5-.83,11.4-4.69,15.35-3.27,3.34-5-5.29-6.65-15.35Z"/><path class="cls-5" d="M953.18,439.03s-4.72,27.56-9.99,0h9.99Z"/></g><g><path class="cls-8" d="M939.94,439.03c.22,2.36,1.57,20.52-6.7,31.08-7.94,10.14-8.65-23.92-8.71-31.08h15.41Z"/><path class="cls-11" d="M925.29,439.03h14.06c.16,1.77,.77,18.2-6.03,26.81-6.38,8.09-7.43-18.04-8.03-26.81Z"/><path class="cls-2" d="M926.04,439.03h12.7c.11,1.18-.03,15.88-5.36,22.53-4.82,6.04-6.22-12.16-7.34-22.53Z"/><path class="cls-5" d="M926.8,439.03h11.35c.05,.59-.83,13.56-4.69,18.25-3.27,3.97-5-6.29-6.65-18.25Z"/><path class="cls-5" d="M937.55,439.03s-4.72,32.77-9.99,0h9.99Z"/></g></g><g><g><path class="cls-8" d="M877.91,439.03c.22,1.8,1.57,15.69-6.7,23.77-7.94,7.75-8.65-18.29-8.71-23.77h15.41Z"/><path class="cls-11" d="M863.26,439.03h14.06c.16,1.35,.77,13.92-6.03,20.5-6.38,6.19-7.43-13.79-8.03-20.5Z"/><path class="cls-2" d="M864.02,439.03h12.7c.11,.9-.03,12.15-5.36,17.23-4.82,4.61-6.22-9.3-7.34-17.23Z"/><path class="cls-5" d="M864.78,439.03h11.35c.05,.45-.83,10.37-4.69,13.96-3.27,3.04-5-4.81-6.65-13.96Z"/><path class="cls-5" d="M875.53,439.03s-4.72,25.06-9.99,0h9.99Z"/></g><g><path class="cls-8" d="M908.93,439.03c.21,1.98,1.57,17.25-6.7,26.14-7.94,8.53-8.65-20.12-8.71-26.14h15.41Z"/><path class="cls-11" d="M894.27,439.03h14.06c.16,1.49,.77,15.31-6.03,22.54-6.38,6.8-7.43-15.18-8.03-22.54Z"/><path class="cls-2" d="M895.03,439.03h12.7c.11,.99-.02,13.36-5.36,18.95-4.82,5.08-6.22-10.23-7.34-18.95Z"/><path class="cls-5" d="M895.79,439.03h11.35c.05,.5-.84,11.4-4.69,15.35-3.27,3.34-5-5.29-6.65-15.35Z"/><path class="cls-5" d="M906.54,439.03s-4.72,27.56-9.99,0h9.99Z"/></g><g><path class="cls-8" d="M893.3,439.03c.22,2.36,1.57,20.52-6.7,31.08-7.94,10.14-8.65-23.92-8.71-31.08h15.41Z"/><path class="cls-11" d="M878.65,439.03h14.06c.16,1.77,.77,18.2-6.03,26.81-6.38,8.09-7.43-18.04-8.03-26.81Z"/><path class="cls-2" d="M879.41,439.03h12.7c.11,1.18-.03,15.88-5.36,22.53-4.82,6.04-6.22-12.16-7.34-22.53Z"/><path class="cls-5" d="M880.17,439.03h11.35c.05,.59-.84,13.56-4.69,18.25-3.27,3.97-5-6.29-6.65-18.25Z"/><path class="cls-5" d="M890.91,439.03s-4.72,32.77-9.99,0h9.99Z"/></g></g></g><g><g><g><path class="cls-8" d="M831.74,439.03c.22,1.8,1.57,15.69-6.7,23.77-7.94,7.75-8.65-18.29-8.71-23.77h15.41Z"/><path class="cls-11" d="M817.09,439.03h14.06c.16,1.35,.77,13.92-6.03,20.5-6.38,6.19-7.43-13.79-8.02-20.5Z"/><path class="cls-2" d="M817.84,439.03h12.7c.11,.9-.03,12.15-5.36,17.23-4.82,4.61-6.22-9.3-7.34-17.23Z"/><path class="cls-5" d="M818.6,439.03h11.35c.05,.45-.83,10.37-4.69,13.96-3.27,3.04-5-4.81-6.65-13.96Z"/><path class="cls-5" d="M829.35,439.03s-4.72,25.06-9.99,0h9.99Z"/></g><g><path class="cls-8" d="M862.75,439.03c.21,1.98,1.57,17.25-6.7,26.14-7.94,8.53-8.65-20.12-8.71-26.14h15.41Z"/><path class="cls-11" d="M848.1,439.03h14.06c.16,1.49,.77,15.31-6.03,22.54-6.38,6.8-7.43-15.18-8.02-22.54Z"/><path class="cls-2" d="M848.86,439.03h12.7c.11,.99-.02,13.36-5.36,18.95-4.82,5.08-6.22-10.23-7.34-18.95Z"/><path class="cls-5" d="M849.62,439.03h11.35c.05,.5-.84,11.4-4.69,15.35-3.27,3.34-5-5.29-6.65-15.35Z"/><path class="cls-5" d="M860.37,439.03s-4.72,27.56-9.99,0h9.99Z"/></g><g><path class="cls-8" d="M847.13,439.03c.22,2.36,1.57,20.52-6.7,31.08-7.94,10.14-8.65-23.92-8.71-31.08h15.41Z"/><path class="cls-11" d="M832.47,439.03h14.06c.16,1.77,.77,18.2-6.03,26.81-6.38,8.09-7.43-18.04-8.02-26.81Z"/><path class="cls-2" d="M833.23,439.03h12.7c.11,1.18-.03,15.88-5.36,22.53-4.82,6.04-6.22-12.16-7.34-22.53Z"/><path class="cls-5" d="M833.99,439.03h11.34c.05,.59-.83,13.56-4.69,18.25-3.27,3.97-5-6.29-6.65-18.25Z"/><path class="cls-5" d="M844.74,439.03s-4.72,32.77-9.99,0h9.99Z"/></g></g><g><g><path class="cls-8" d="M780.76,439.03h4.35c.19,1.61,1.27,12.79-4.35,20.93v-20.93Z"/><path class="cls-11" d="M780.76,439.03h3.75c.14,1.17,.62,10.84-3.75,17.67v-17.67Z"/><path class="cls-2" d="M780.76,439.03h3.15c.09,.75,0,8.73-3.15,14.3v-14.3Z"/><path class="cls-5" d="M780.76,439.03h2.56c.04,.35-.49,6.44-2.56,10.81v-10.81Z"/><path class="cls-5" d="M780.76,439.03h1.96s-.74,3.91-1.96,7.1v-7.1Z"/></g><g><path class="cls-8" d="M816.12,439.03c.21,1.98,1.57,17.25-6.7,26.14-7.94,8.53-8.65-20.12-8.71-26.14h15.41Z"/><path class="cls-11" d="M801.46,439.03h14.06c.16,1.49,.77,15.31-6.03,22.54-6.38,6.8-7.43-15.18-8.02-22.54Z"/><path class="cls-2" d="M802.22,439.03h12.7c.11,.99-.02,13.36-5.36,18.95-4.82,5.08-6.22-10.23-7.34-18.95Z"/><path class="cls-5" d="M802.98,439.03h11.34c.05,.5-.83,11.4-4.69,15.35-3.27,3.34-5-5.29-6.65-15.35Z"/><path class="cls-5" d="M813.73,439.03s-4.72,27.56-9.99,0h9.99Z"/></g><g><path class="cls-8" d="M800.49,439.03c.22,2.36,1.57,20.52-6.7,31.08-7.94,10.14-8.65-23.92-8.71-31.08h15.41Z"/><path class="cls-11" d="M785.83,439.03h14.06c.16,1.77,.77,18.2-6.03,26.81-6.38,8.09-7.43-18.04-8.03-26.81Z"/><path class="cls-2" d="M786.59,439.03h12.7c.11,1.18-.03,15.88-5.36,22.53-4.82,6.04-6.22-12.16-7.34-22.53Z"/><path class="cls-5" d="M787.35,439.03h11.35c.05,.59-.83,13.56-4.69,18.25-3.27,3.97-5-6.29-6.65-18.25Z"/><path class="cls-5" d="M798.1,439.03s-4.72,32.77-9.99,0h9.99Z"/></g></g></g></g></g><path class="cls-7" d="M710.42,78.34h209.03c-3.73-6.95-11.65-11.76-20.84-11.76-.27,0-.54,.03-.81,.04,.53-2.33,.81-4.73,.81-7.2,0-16.78-12.92-30.85-30.34-34.7-5.2-14.34-20.25-24.71-38.01-24.71s-32.91,10.44-38.06,24.86c-7.07-5.65-16.39-9.09-26.61-9.09-22.07,0-39.96,16.01-39.96,35.75,0,1.27,.08,2.53,.22,3.77-8.96,4.66-15.06,13.19-15.43,23.05Z"/></g></g></g></g></svg>