<?xml version="1.0" encoding="UTF-8"?><svg id="Layer_2" xmlns="http://www.w3.org/2000/svg" viewBox="0 0 46.62 60.18"><defs><style>.cls-1{fill:#f8d820;}.cls-2{fill:#f8f800;}.cls-3{fill:#ffde21;}.cls-4{fill:#fff;}.cls-5{fill:#d8a038;}</style></defs><g id="Layer_1-2"><g><g><g><polygon class="cls-1" points="38.08 12.23 38.08 4.02 33.86 4.02 29.64 4.02 29.64 0 11.94 0 11.94 4.02 4.22 4.02 4.22 12.17 7.84 12.17 7.84 12.23 11.94 12.23 11.94 12.26 7.84 12.26 4.22 12.26 4.22 12.23 0 12.23 0 42.99 4.22 42.99 4.22 49.75 7.84 49.75 11.94 49.75 11.94 53.73 29.64 53.73 29.64 49.75 33.86 49.75 38.08 49.75 38.08 42.99 42.3 42.99 42.3 12.23 38.08 12.23"/><g><rect class="cls-1" x="4.22" y="12.26" width="29.64" height="37.49"/><rect class="cls-1" x="7.84" y="20.49" width="26.02" height="29.26"/><rect class="cls-2" x="7.84" y="20.49" width="26.02" height="25.82"/><rect class="cls-5" x="11.94" y="49.7" width="17.69" height="4.02"/><rect class="cls-4" x="11.94" width="17.69" height="4.02"/><rect class="cls-2" x="7.84" y="12.26" width="26.36" height="30.73"/><rect class="cls-1" x="16.17" y="15.54" width="9.25" height="30.76"/><rect class="cls-1" x="16.17" y="15.54" width="9.25" height="27.45"/><rect class="cls-2" x="16.17" y="12.23" width="9.25" height="26.94"/><rect class="cls-5" x="38.08" y="12.23" width="4.22" height="30.76"/><rect class="cls-4" y="12.23" width="4.22" height="30.76"/><rect class="cls-4" x="4.22" y="4.02" width="7.91" height="8.15"/><rect class="cls-5" x="29.64" y="20.49" width="4.22" height="29.26"/><rect class="cls-1" x="29.64" y="17.05" width="4.22" height="29.25"/><rect class="cls-2" x="25.42" y="17.05" width="4.22" height="29.25"/><rect class="cls-2" x="12.13" y="4.02" width="17.51" height="29.26"/><rect class="cls-3" x="12.13" y="4.02" width="17.51" height="4.86"/><rect class="cls-3" x="25.42" y="4.02" width="4.22" height="29.26"/><rect class="cls-2" x="25.42" y="8.88" width="4.22" height="29.25"/><rect class="cls-5" x="33.86" y="17.05" width="4.22" height="32.69"/><rect class="cls-3" x="29.64" y="4.02" width="4.22" height="30.76"/><rect class="cls-2" x="29.64" y="12.23" width="4.22" height="30.76"/><rect class="cls-1" x="25.42" y="12.23" width="4.22" height="30.76"/><rect class="cls-2" x="21.19" y="12.23" width="4.22" height="27.07"/><rect class="cls-4" x="11.94" y="12.23" width="4.22" height="30.76"/><rect class="cls-1" x="33.86" y="4.02" width="4.22" height="38.97"/><rect class="cls-4" x="16.47" y="8.88" width="8.95" height="3.35"/><rect class="cls-1" x="7.84" y="8.88" width="8.58" height="3.35"/><rect class="cls-2" x="11.94" y="8.88" width="4.47" height="3.35"/></g></g><path class="cls-5" d="M26.56,15.15v9.74h-6.26v-2.43h-2.09v9.74h2.09v-4.87h6.26v12.17H11.94V15.15h14.62Z"/></g><g><rect x="23.53" y="35.62" width="23.09" height="24.55"/><path class="cls-4" d="M43.46,38.78v8.29h-2.4v1.66h2.4v8.29h-7.19v-4.98h-2.4v4.98h-7.19v-8.29h2.4v-1.66h-2.4v-8.29h7.19v4.98h2.4v-4.98h7.19Z"/></g></g></g></svg>