<svg id="Layer_1-2" xmlns="http://www.w3.org/2000/svg" width="44.89" height="40.43" viewBox="0 0 44.89 40.43">
  <g id="Group_168" data-name="Group 168">
    <g id="Group_164" data-name="Group 164">
      <rect id="Rectangle_205" data-name="Rectangle 205" width="15.08" height="5.36" transform="translate(25.11)" fill="#870000"/>
      <rect id="Rectangle_206" data-name="Rectangle 206" width="5.36" height="15.08" transform="translate(39.53 4.98)" fill="#870000"/>
      <rect id="Rectangle_207" data-name="Rectangle 207" width="5.36" height="15.08" transform="translate(0 4.98)" fill="#870000"/>
      <rect id="Rectangle_208" data-name="Rectangle 208" width="4.67" height="35.44" transform="translate(20.44 4.99)" fill="#870000"/>
      <rect id="Rectangle_209" data-name="Rectangle 209" width="14.93" height="30.01" transform="translate(15.31 4.99)" fill="#870000"/>
      <rect id="Rectangle_210" data-name="Rectangle 210" width="24.8" height="25.33" transform="translate(10.38 4.99)" fill="#870000"/>
      <rect id="Rectangle_211" data-name="Rectangle 211" width="34.83" height="19.85" transform="translate(5.36 4.99)" fill="#870000"/>
      <rect id="Rectangle_212" data-name="Rectangle 212" width="4.67" height="29.92" transform="translate(20.44 4.99)" fill="#f52d2d"/>
      <rect id="Rectangle_213" data-name="Rectangle 213" width="14.93" height="25.33" transform="translate(15.31 4.99)" fill="#f52d2d"/>
      <rect id="Rectangle_214" data-name="Rectangle 214" width="24.8" height="19.85" transform="translate(10.38 4.99)" fill="#f52d2d"/>
      <rect id="Rectangle_215" data-name="Rectangle 215" width="34.83" height="15.08" transform="translate(5.36 4.99)" fill="#f52d2d"/>
      <rect id="Rectangle_216" data-name="Rectangle 216" width="15.08" height="5.13" transform="translate(5.36)" fill="#870000"/>
      <rect id="Rectangle_217" data-name="Rectangle 217" width="4.93" height="4.77" transform="translate(30.24 20.07)" fill="#b81a1b"/>
      <rect id="Rectangle_218" data-name="Rectangle 218" width="4.94" height="4.77" transform="translate(35.18 15.27)" fill="#b81a1b"/>
      <rect id="Rectangle_219" data-name="Rectangle 219" width="4.94" height="4.77" transform="translate(20.31 4.98)" fill="#b81a1b"/>
      <rect id="Rectangle_220" data-name="Rectangle 220" width="4.93" height="4.77" transform="translate(10.44 4.98)" fill="#f5f5f5"/>
      <rect id="Rectangle_221" data-name="Rectangle 221" width="5.07" height="4.77" transform="translate(5.36 4.98)" fill="#f5f5f5"/>
      <rect id="Rectangle_222" data-name="Rectangle 222" width="5.07" height="4.77" transform="translate(5.36 9.75)" fill="#f5f5f5"/>
      <rect id="Rectangle_223" data-name="Rectangle 223" width="4.94" height="5.14" transform="translate(35.18 10.12)" fill="#de1f20"/>
      <rect id="Rectangle_224" data-name="Rectangle 224" width="4.93" height="5.14" transform="translate(30.18 14.91)" fill="#de1f20"/>
      <rect id="Rectangle_225" data-name="Rectangle 225" width="4.94" height="5.14" transform="translate(25.21 19.88)" fill="#de1f20"/>
      <rect id="Rectangle_226" data-name="Rectangle 226" width="4.93" height="4.96" transform="translate(10.44 9.57)" fill="#ed2122"/>
      <rect id="Rectangle_227" data-name="Rectangle 227" width="4.94" height="5.54" transform="translate(5.43 14.53)" fill="#ed2122"/>
      <rect id="Rectangle_228" data-name="Rectangle 228" width="4.94" height="5.14" transform="translate(20.13 25.06)" fill="#de1f20"/>
      <rect id="Rectangle_229" data-name="Rectangle 229" width="4.94" height="5.14" transform="translate(35.18 4.98)" fill="#ed2122"/>
      <rect id="Rectangle_230" data-name="Rectangle 230" width="5.13" height="5.38" transform="translate(25.11 24.93)" fill="#b81a1b"/>
      <rect id="Rectangle_231" data-name="Rectangle 231" width="4.59" height="4.59" transform="translate(20.48 30.32)" fill="#b81a1b"/>
    </g>
  </g>
</svg>
