<svg xmlns="http://www.w3.org/2000/svg" width="472.789" height="123.069"><defs><clipPath id="a"><path fill="#fff" d="M0 0h225.687v66.348H0z"/></clipPath><clipPath id="b"><path fill="#fff" d="M0 0h151.042v44.404H0z"/></clipPath></defs><g><g><g clip-path="url(#a)"><path d="M.2 66.348c-2.407-12.839 16.851-33.7 38.425-29.84 2.527-5.435 8.245-8.508 13.38-7.194C54.29 13.181 67.275.117 81.141 0s27.01 12.723 29.49 28.815c4.658-8.233 17.252-6.76 20.451 2.389 11.861-12.406 33.009-8.668 41.26 7.293 15.326-8.226 50.938 8.592 53.345 27.85Z" fill="#fff"/></g></g><g><g transform="translate(321.748 78.665)" clip-path="url(#b)"><path d="M.137 44.4c-1.611-8.592 11.278-22.555 25.716-19.97 1.688-3.637 5.515-5.694 8.952-4.815C36.334 8.821 45.024.078 54.3 0s18.08 8.516 19.74 19.285c3.117-5.51 11.546-4.524 13.687 1.6 7.938-8.3 22.091-5.8 27.613 4.881 10.257-5.505 34.09 5.75 35.7 18.639Z" fill="#fff"/></g></g></g></svg>